<svg xmlns="http://www.w3.org/2000/svg" viewBox="0 0 1902.78592 1300.00589"><defs><style>.cls-1{fill:#1a5829;}.cls-2{fill:#25632a;}.cls-3{fill:#77b345;}.cls-4{fill:#407f38;}.cls-5{fill:#28682e;}.cls-6{fill:#38733f;}.cls-7{fill:#1a5729;}.cls-8{fill:#639d42;}.cls-9{fill:#71a64a;}.cls-10{fill:#72a44b;}.cls-11{fill:#588c49;}.cls-12{fill:#34713b;}.cls-13{fill:#37733b;}.cls-14{fill:#1a5629;}.cls-15{fill:#316e26;}.cls-16{fill:#508449;}.cls-17{fill:#35703b;}.cls-18{fill:#1d5a2b;}.cls-19{fill:#24602d;}.cls-20{fill:#599239;}.cls-21{fill:#1f602a;}.cls-22{fill:#2d6936;}.cls-23{fill:#76b046;}.cls-24{fill:#367530;}.cls-25{fill:#3e7c36;}.cls-26{fill:#6b9f48;}.cls-27{fill:#25612f;}.cls-28{fill:#6da246;}.cls-29{fill:#6b994a;}.cls-30{fill:#2e7034;}.cls-31{fill:#2c6c32;}.cls-32{fill:#659e40;}.cls-33{fill:#57933e;}.cls-34{fill:#fbfcfb;}.cls-35{fill:#a3d47e;}</style></defs><title>Recurso 1</title><g id="Capa_2" data-name="Capa 2"><g id="Capa_1-2" data-name="Capa 1"><path class="cls-1" d="M400.61375,552.09813c5.53892,13.091,8.89654,26.96383,15.62592,39.69548,6.14356,11.62332,10.56064,24.16026,15.71333,36.30529,15.30187,36.06686,30.07336,72.37,46.039,108.14052,14.42256,32.31331,27.52174,65.19176,42.398,97.30861,7.136,15.40625,13.14189,31.3326,19.80936,46.95956,8.86389,20.77481,17.94893,41.45542,26.80055,62.23543,9.16461,21.51488,18.10617,43.1247,27.24894,64.649,13.28526,31.27678,26.96809,62.38852,39.92149,93.80141,14.78339,35.85076,30.64353,71.24033,45.24711,107.16918,10.23388,25.17819,20.584,50.32341,31.75142,75.11555,2.27549,5.05181,3.68973,10.44469,6.28952,15.21448-1.42889,1.519-2.901,1.039-4.20718,1.03975q-67.82593.03889-135.65172.08556c-3.296.00732-5.30906-.89222-6.33444-4.07052-.79662-2.46906-1.979-4.81344-2.78115-7.281-7.36934-22.66942-17.53841-44.217-26.45026-66.26866-4.86792-12.04555-9.4281-24.21974-13.87276-36.42851-1.15511-3.17272-2.7074-4.29847-6.097-4.21629-48.41276,1.17469-96.83251.40436-145.2501.39909q-58.82366-.00637-117.64729.15617c-5.10516.00865-5.02806.07985-6.75464,4.82971-4.36926,12.01963-9.28881,23.81876-14.12874,35.65657-8.394,20.53073-16.23575,41.28737-24.29866,61.95333-1.38,3.5368-2.70024,7.09689-4.06216,10.64086-1.7571,4.57244-1.76313,4.62431-6.85979,4.62885q-41.417.03648-82.83392.02183-49.21821-.01671-98.43638-.07809c-10.06728-.01509-8.13926.81794-12.27834-8.01533-2.79673-5.96864-4.8569-12.29095-7.79363-18.18254-2.72954-5.47579-2.05622-10.3247.92944-15.29593,4.52953-7.542,8.95936-15.14371,13.43741-22.71674,12.82133-21.68271,25.531-43.43237,38.49565-65.029,19.859-33.08159,39.29769-66.40769,58.76792-99.7179,9.98605-17.0844,20.37456-33.93557,30.26205-51.08333,16.17791-28.057,32.03718-56.30876,48.77729-84.02779,15.72087-26.03129,29.59736-53.085,45.04977-79.2364,11.80139-19.97232,22.54823-40.53067,34.54069-60.38623,4.32963-7.16838,8.13139-14.65533,12.174-21.997,3.30461-5.57688,5.46938-11.733,8.78531-17.30936.82791-1.32595,1.83376-2.38526,3.55754-2.35142,2.54492.90724,2.53514,3.07157,1.94635,4.97168-1.82567,5.89158-2.79627,12.1054-6.32341,17.39016a85.45093,85.45093,0,0,0-10.28675,22.23628c-4.35622,13.94837-11.48908,26.83714-15.8734,40.78266-10.40746,33.10348-27.12546,63.58415-39.76089,95.774-14.24238,36.28384-30.03394,71.94363-45.65431,107.64921-9.37059,21.41987-18.1592,43.099-28.09645,64.28043-5.34756,11.39829-8.06967,23.84307-13.15067,35.39623-1.60488,3.64916-3.26273,7.28719-4.69813,11.01445-.35836.71714.95911.37725.16617.26876-.10086-.01377-.083-.2024.06514-.561a86.15781,86.15781,0,0,1,11.9445-20.67526c10.78478-13.68283,19.13538-29.05356,29.37406-43.11254a599.72017,599.72017,0,0,1,39.16581-47.72682c19.45487-21.63421,42.17758-39.61325,64.51636-58.06887,14.0075-11.57249,27.62348-23.68361,40.61208-36.4017,10.55438-10.33459,22.46492-19.29745,31.56637-31.13057a42.53035,42.53035,0,0,0,6.71066-11.95663c7.17367-20.56238,14.70957-40.97986,23.92822-60.74033,2.2239-4.767,3.29215-5.43493,6.80269-3.39066-1.34438,7.34345-5.11749,13.80033-7.669,20.70126-5.606,15.16254-12.37887,29.896-17.84085,45.09528-12.89372,35.87948-27.14153,71.225-41.15193,106.6652-7.11765,18.00461-14.43208,35.929-20.92333,54.17468-1.97412,5.54891-1.63219,6.23082,4.07518,6.767a51.68658,51.68658,0,0,1,6.55518.73165,19.88409,19.88409,0,0,0,5.37083.37512q73.33288.0266,146.66577.00059a19.60975,19.60975,0,0,0,5.34082-.37967,29.46384,29.46384,0,0,1,7.73623-.6699c3.75659.12915,5.25627-1.10018,3.67628-4.98251-1.58152-3.88607-2.56565-8.00178-4.14087-11.89165-22.73464-56.13969-42.90318-113.27049-65.58352-169.439-6.49264-16.07922-13.41924-32.09853-18.0584-48.91138a23.21182,23.21182,0,0,1-.353-4.84539,3.72213,3.72213,0,0,1,1.09089-1.69536c4.69309-2.36446,6.92784-6.37051,7.77869-11.3876,3.50127-20.64625,10.23344-40.70714,11.15371-61.82785q.19563-4.48989.28785-8.97721c.25693-13.36484-.42238-26.72632,1.0315-40.09665,1.21087-11.13532-.86312-22.31327-.9686-33.47583-.22267-23.56934-.06781-47.14219-.06631-70.71364.00022-3.40414.08082-6.84321-1.31913-10.02876-4.17011-9.48911-9.18424-18.601-12.24416-28.58811-1.01248-3.30469-3.40356-5.41276-7.39319-4.04239-1.16281.39938-2.38123.37158-3.10011-.95368-.67528-5.44254,2.83083-9.02112,6.10283-12.37812C398.64787,546.41367,399.771,549.43678,400.61375,552.09813Z"/><path class="cls-2" d="M486.81865,671.11c-1.27686-.91617-.8725-2.25714-.88324-3.49328-1.09037-2.8951.52724-3.23016,2.66113-2.57806,2.91032.88921,4.45473,3.28268,5.57193,5.91766,8.03789,18.95813,17.07067,37.43441,26.83143,55.56047a16.24956,16.24956,0,0,1,1.48528,3.27345c7.16609,25.80985,19.19149,49.88192,26.9889,75.46468a16.89135,16.89135,0,0,0,1.27667,3.35821c.98053,1.75748,2.01057,3.76541,4.15622,4.00436,2.57964.28715,3.02324-2.24322,3.83854-3.93617,9.621-19.97862,18.75724-40.19861,28.70484-60.00751,5.54456-11.041,13.144-20.896,21.12179-30.46345,9.31226-11.16784,18.81113-22.37429,23.06287-36.82276,1.09594-3.7241,1.31715-6.89046-1.59684-9.96129-2.21819-2.33772-2.1603-5.41163-1.79423-8.50408.92228-7.791,3.49116-15.18752,5.33514-22.75263a336.33338,336.33338,0,0,0,9.32075-80.75061c-.0392-17.18626,2.76144-34.22729,2.58991-51.42033a9.91135,9.91135,0,0,1,.98039-4.0559c.87312-2.39882,2.57869-2.74164,4.8056-2.01567,5.73522,1.8696,10.60156-.16511,15.11092-3.52544,4.00532-2.98469,8.0968-5.84777,12.07157-8.88008,5.46549-4.16959,7.76077-3.96389,13.54156-.40274,9.33892,5.75313,16.57162,13.20947,19.65113,23.98775,2.18551,7.649,6.60423,12.97408,14.24374,15.68311,7.94183,2.8161,11.87189,8.81555,14.89586,16.68174,7.83991,20.39389,14.99742,40.85137,17.37257,62.73427a21.38492,21.38492,0,0,0,4.73907,11.52546A171.07645,171.07645,0,0,1,781.8,648.13c2.27263,4.15615,4.67312,5.08045,9.64271,3.26532,23.159-8.45859,44.74211-20.31515,67.1974-30.266,7.58066-3.35938,13.91767-8.61022,20.89134-12.88489,13.34776-8.18176,28.55284-11.32621,43.16668-16.01,6.68571-2.1428,12.45258-5.213,17.1575-10.4107a45.041,45.041,0,0,1,7.50718-6.87017c4.27672-2.98366,8.87884-4.52073,14.13852-3.36795a27.88979,27.88979,0,0,0,4.15442.57731c10.85538.71136,11.79357-1.57157,8.66159-11.70164-5.59929-18.11045-18.609-30.95157-29.75839-45.19178-10.94727-13.98207-22.35153-27.59011-33.05956-41.78117-7.18968-9.5283-14.79966-18.74824-21.57623-28.60668-2.85815-4.15794-3.03884-4.612-.8005-7.85791,3.49812,6.69249,8.82645,12.048,13.34753,17.97611,11.63405,15.25491,23.24627,30.53143,35.51713,45.2969,7.705,9.27129,15.02344,18.86423,22.48518,28.3366,1.8305,2.32358,4.033,4.282,5.74789,6.76377,2.80672,4.06183,4.6639,8.529,6.84523,12.88891q22.8284,45.62778,45.96848,91.09952c6.7858,13.36132,12.85705,27.09433,20.48659,40.01577,2.40071,4.06583,2.31286,7.52315-.22,11.59857-10.441,16.79974-20.60207,33.77324-30.89134,50.66748-9.97713,16.38169-20.17679,32.63145-29.92794,49.14616-10.76936,18.23916-23.34255,35.38078-33.11481,54.20039-2.64412,5.09232-5.54632,7.13256-11.51469,6.36282-6.69157-.86292-13.57534-.16636-20.37206-.31272a7.23945,7.23945,0,0,0-7.20668,4.288c-5.49869,10.42344-11.31172,20.6757-16.35817,31.34293-6.15178,13.00341-12.82511,25.76443-18.80557,38.84373-9.05565,19.80494-19.18687,39.08282-28.1,58.96812-10.70012,23.87173-22.44957,47.27338-33.751,70.87561-1.52642,3.188-3.08947,6.35835-4.81666,9.90921-2.44937-1.39064-3.10545-3.56551-3.93827-5.44291-13.04954-29.41711-28.02-57.92281-41.095-87.34432-8.75567-19.70194-18.89987-38.8093-27.89243-58.43213-5.666-12.364-11.86449-24.44808-18.09239-36.52587-2.77184-5.37529-2.71381-5.33771,2.486-8.00807a51.91373,51.91373,0,0,0,17.67313-14.09356c2.09282-2.68406,1.636-3.77919-1.71-4.09045-1.78676-.16613-3.59741-.092-5.39743-.09764q-77.1036-.23877-154.20713-.47094c-1.20006-.00367-2.40027.00124-3.60026-.01224-6.03769-.06783-6.09722-.0479-8.11882-5.62523-3.88812-10.72642-9.53925-20.67174-13.877-31.17167-5.72741-13.864-12.19352-27.40038-17.64034-41.39388-6.30608-16.20119-13.34995-32.11626-20.11931-48.13615-6.6786-15.80526-13.42029-31.58378-20.10578-47.38611a11.182,11.182,0,0,1-.4503-2.28059C487.3557,673.76094,488.6286,671.78992,486.81865,671.11Z"/><path class="cls-3" d="M400.61375,552.09813a7.92566,7.92566,0,0,1-1.0673-1.30954c-.94291-1.83488-1.94169-2.60634-3.34952-.39641-2.13389,3.34956-4.78666,6.38256-6.1976,10.17237-2.94213,9.54943-8.06211,18.146-12.1259,27.19524-9.48239,21.11521-19.05088,42.21637-30.43023,62.417-1.31931,2.342-1.973,5.40957-5.43784,5.79247a3.31065,3.31065,0,0,1-2.50065-4.11638c1.752-8.42137-.61733-16.85116.27206-25.25341,1.19021-5.91671,3.70878-11.3753,5.92726-16.92735,7.5603-18.92019,14.653-38.0252,22.14091-56.96613,11.39031-28.81193,21.39209-58.12931,32.65626-86.99028,12.05654-30.89114,22.35116-62.45368,31.92635-94.22587,3.28611-10.904,6.854-21.72315,10.15292-32.62343q22.05231-72.8634,43.99579-145.75964c6.088-20.28334,12.24954-40.55307,17.27954-61.13462a28.85743,28.85743,0,0,1,11.66248-17.52771c4.90478-3.45792,9.13409-7.74585,13.6207-11.72127,14.95481-13.25106,30.08794-26.30072,45.09734-39.49059,10.95972-9.63122,21.64628-19.582,32.794-28.98844q18.11207-15.283,35.41828-31.44039c1.46472-1.368,2.95378-4.38342,5.84762-1.7765,1.66373,4.99938,1.747,10.16189,1.74067,15.36424q-.05847,47.97113-.02653,95.94239a56.48682,56.48682,0,0,1-.345,8.96141c-.45649,2.72493-2.22786,4.56473-4.26888,6.2419-12.7645,10.489-21.1711,24.20839-28.24076,38.79487-3.49856,7.21828-2.60258,9.59779,3.76322,14.88736,9.01931,7.49461,19.30712,13.46075,27.09309,22.46095,1.82464,2.10874,3.48054,4.282,2.97635,7.337a47.61881,47.61881,0,0,0-.97541,11.318c.00923,43.34752-.89408,86.72117.36548,130.03208.68606,23.59061-1.30572,47.0627-.52771,70.59559.12625,3.81688,1.41212,7.46286,1.23245,11.28307-1.837,20.596-.07657,41.32063-2.16052,61.91227a27.48954,27.48954,0,0,1-1.35907,6.37754,123.294,123.294,0,0,0-13.96427,41.737,19.036,19.036,0,0,1-3.38074,8.9055c-10.9307,14.08481-18.94859,30.07921-29.356,44.50256-5.23908,7.26089-11.3677,12.4743-21.10567,12.772-7.09.21676-11.9544,4.88377-15.483,10.93146-1.66967,2.86162-.18461,4.80692,1.215,7.07776,3.15667,5.12184,2.29615,7.6769-3.502,9.1572a56.19672,56.19672,0,0,0-15.02281,5.72222c-3.47211,2.05086-7.27593,1.69536-11.04948.54031a40.3622,40.3622,0,0,0-18.8799-1.62746,51.26382,51.26382,0,0,1-16.129-.16408c-6.57694-1.006-13.10435-1.31628-19.579.67334-2.12436.65275-4.304,1.13329-6.2183-.62815-3.63269-4.84707-5.56328-10.54035-7.63995-16.09446-6.78858-18.15653-15.59261-35.43688-22.95918-53.34546-3.79425-9.22422-7.62921-18.43764-11.4128-27.67054-2.97755-7.26595-3.64481-7.5471-11.16488-4.73-3.16473,1.18556-6.168,2.80727-9.2277,4.26636-3.73981,1.78345-6.87908,4.76451-11.17437,5.47594C400.64855,550.18322,400.85185,551.36739,400.61375,552.09813Z"/><path class="cls-4" d="M646.89614,504.13211c1.52591-17.43258.83619-34.92211,1.439-52.37288.19718-5.70739.97021-11.4373,1.01527-17.18861-.23264-13.94445,5.942-26.1671,10.17446-38.97357,10.269-31.07226,20.21276-62.25352,30.30838-93.38372,4.11932-12.7022,9.53807-24.95363,12.36223-38.11673,1.38442-6.45274-.03378-11.18237-5.00212-15.38461-5.48924-4.64278-10.85-9.51287-16.82558-13.44536-9.74038-6.41-17.57311-15.0445-26.84067-21.96686a9.29953,9.29953,0,0,1-3.10274-4.31831q-1.77151-2.4296-3.54311-4.85919c-1.67575-2.64128-1.88392-5.58542-1.90678-8.61218-.16354-21.68721,1.993-43.32937,1.24865-65.02731a12.43772,12.43772,0,0,1,1.856-6.82264q.00242-56.81163.00864-113.62324a16.31182,16.31182,0,0,0-.83567-5.87383A2.53448,2.53448,0,0,1,648.297,1.02761,180.68652,180.68652,0,0,1,669.52134,20.357c14.35958,15.07036,30.33959,28.40623,45.17252,42.96206C728.957,77.31578,743.414,91.11488,757.716,105.07227c5.67059,5.53393,9.48012,12.25424,12.24478,19.67633q18.29989,49.12908,36.8016,98.18281c11.4061,30.06382,23.10609,60.016,34.59689,90.04793,14.1309,36.932,27.34845,74.21022,42.028,110.93405,1.76968,4.427,3.81678,8.74306,5.73536,13.1104-1.98767,2.37043-.2037,4.41817,1.10679,5.82723a37.02216,37.02216,0,0,1,6.53352,9.95342,2.84528,2.84528,0,0,0,.65953.99261c5.51364,4.65658,8.31149,11.50978,13.61813,16.4563,3.69962,3.4487,6.48736,8.0258,9.38553,12.245,5.21153,7.58731,11.379,14.31464,17.1597,21.40119q7.72,9.46407,15.23329,19.12512c3.54047,4.54267,7.27358,8.94517,10.833,13.463a57.50821,57.50821,0,0,1,10.2719,19.94423,66.60858,66.60858,0,0,0,3.5026,8.246c2.24053,5.03588.52463,8.37072-4.9882,8.95293-3.15667.33338-6.624.7411-9.534-.18943-7.68039-2.456-13.13512.93127-18.28679,5.759-2.18719,2.04976-4.30705,4.17783-6.36485,6.35783-3.68115,3.89991-8.31229,5.87576-13.338,7.53787-11.72146,3.87654-23.82255,6.59913-35.17787,11.601a84.10564,84.10564,0,0,0-17.49244,10.186,62.119,62.119,0,0,1-14.00135,7.96632c-11.62475,4.88-22.64228,10.9672-33.93766,16.49757a151.077,151.077,0,0,1-18.78307,7.7525,81.57024,81.57024,0,0,0-16.38455,7.16443c-2.16177,1.29752-3.59447.95829-5.2914-.592-2.73608-2.49946-4.26807-5.86639-5.83919-8.98344-4.34538-8.62113-10.01531-16.28-16.09967-23.64134a26.80183,26.80183,0,0,1-5.56859-13.66467,268.09774,268.09774,0,0,0-7.47545-36.7309c-1.32785-4.58973-3.91848-8.64391-5.43443-13.223-1.73261-5.23359-4.0018-10.34573-5.62824-15.63942a15.3471,15.3471,0,0,0-8.33794-9.60668c-3.397-1.69635-6.73693-3.52247-10.20794-5.05093a11.56211,11.56211,0,0,1-6.31084-6.77435c-1.16153-2.96726-2.51927-5.86847-3.50413-8.892-2.79068-8.56623-8.46573-14.70526-15.9085-19.43136-.50492-.32062-.9908-.67129-1.48627-1.00693-6.82749-4.62493-7.91157-4.43539-14.45667.976a131.28791,131.28791,0,0,1-14.11573,9.997,13.46511,13.46511,0,0,1-13.52852.92207c-1.48729-.665-1.66358.1379-1.84215,1.20113C647.70382,504.60287,647.30192,504.62894,646.89614,504.13211Z"/><path class="cls-5" d="M1307.19319,408.31126c10.858,4.24207,20.30436,10.99412,30.01038,17.21758,3.94091,2.52686,7.84547,5.20765,11.884,7.52446,8.1947,4.701,13.54215,11.72229,18.33947,19.55372,7.66376,12.51137,15.90052,24.67424,23.47019,37.24019,4.26316,7.07722,8.962,13.84468,13.30475,20.84561.85963,1.3859,3.21228,1.99584,2.63709,4.25086-2.00211,3.39681-1.33709,6.57558,1.02377,9.42893,11.9042,14.38672,20.18419,31.26,31.20736,46.11891,8.80828,11.87341,17.4048,23.80294,25.25849,36.29929a66.72377,66.72377,0,0,1,6.58151,13.437c1.92518,5.4966.9187,10.13124-3.8266,13.90545-2.63709,2.09745-5.589,3.93609-7.40569,6.9295-2.37536,3.914-1.68894,6.50881,2.68,7.7325,6.48494,1.81645,9.8023,5.9759,10.18083,12.45394.28327,4.84971,2.69424,5.1929,6.40786,3.66367a30.25406,30.25406,0,0,0,4.318-2.08324c3.9648-2.4265,7.42738-1.49839,11.096,1.005,14.80376,10.10157,25.489,23.17384,31.40945,40.316,2.27351,6.58265,7.5093,11.7387,12.13223,16.96712a54.799,54.799,0,0,1,11.16254,19.67338c1.99112,6.16086-.11709,9.17346-6.63647,9.61334-6.52642.44018-12.69468,1.61787-17.75095,6.122-1.02582.91376-2.52176,2.0617-1.9196,3.45819.87532,2.029,2.76019.90028,4.178.4593a15.79687,15.79687,0,0,1,7.68838-.74491c3.9453.75128,6.997-.58119,9.71276-3.35015,2.4523-2.50056,5.13863-4.71616,8.9538-2.604,4.19136,2.32029,7.64222,5.16931,7.456,10.62211a11.83651,11.83651,0,0,1-3.24658,8.17136c-6.72557,6.87031-13.78688,13.356-22.54959,17.61636-4.52225,2.19869-6.04442,1.3042-6.10451-4.01455-.05261-4.66386-1.852-7.69873-6.4612-8.72874-1.5846-.3541-3.22225-.2484-3.97843,1.70313-1.20035,3.09772,1.59266,9.0164,5.30262,11.0206a29.49257,29.49257,0,0,1,5.17585,2.9989c2.56675,2.14866,3.53864,4.85073,2.38913,8.03218-1.07462,2.97385-3.59022,4.80744-6.52084,4.27394-9.88115-1.79887-19.48092.05347-29.17932,1.35225-5.21659.69854-9.39359-1.22787-11.71648-6.36121a12.96323,12.96323,0,0,0-3.87541-5.32358c.3183,5.80764-4.12042,7.691-7.66669,10.23416a3.00427,3.00427,0,0,1-4.66338-1.07074c-5.22333-10.47457-15.15986-8.92725-24.07615-9.18334-3.55388-.102-6.304.71582-6.737-4.02019a3.55124,3.55124,0,0,0-3.90281-3.06307c-2.21533.04754-1.12855,2.10917-1.48978,3.27132-.87649,2.82039-3.15411,3.53306-5.641,3.53475a94.17483,94.17483,0,0,0-13.70643,1.38323c-4.264.62968-8.46829,1.487-10.44344-3.965a2.33572,2.33572,0,0,0-2.98587-1.37327c-1.62709.45241-1.95345,1.8618-2.14015,3.28034-.45253,3.43842.98669,6.727.88133,10.1201-.0957,3.09047-.16472,6.5042-5.25191,4.51158,1.18057,3.52558,3.90295,5.97157,4.00949,9.5784.06243,2.1162,1.68733,3.0197,3.65617,3.30582,1.38706.20145,2.79448.16951,4.17993.38129,2.85764.4368,5.00175,1.72217,5.00732,4.92625a4.523,4.523,0,0,1-4.59465,4.66606c-6.75532.34883-13.41436,2.51844-20.254,1.20194-8.75816-1.68563-17.50445-.65364-26.28064-.12131-11.35173.68865-22.69364,1.6424-34.07351,1.79492a28.74787,28.74787,0,0,1-8.84638-1.49356c-5.37442-1.662-6.26014-5.1359-2.343-9.27205,1.28315-1.35482,2.45112-2.6144,2.66024-4.5118.45078-4.0889,2.559-6.56983,6.73452-7.228,1.18365-.18658,2.52894-.73385,2.68706-2.05211.1867-1.55948-1.36654-1.69844-2.44336-2.08009-3.699-1.31115-6.07667-3.71714-6.5843-7.74063-.15607-1.2349-.518-2.55587-1.98731-2.5681-1.77467-.01487-2.15495,1.53487-2.43,2.92426-.62077,3.13529-.83824,6.40025-2.10792,9.334-.71279,1.64753-1.62548,4.94311-4.3124,1.34375-.91093-2.71936-.65491-5.52854-.72056-8.30892-.37062-15.72117.776-31.46358-1.057-47.17339a67.63434,67.63434,0,0,1,.60875-16.6873c1.423-10.71514-.16589-21.46317-.2522-32.19537-.04133-5.1417-.166-10.33811-.43964-15.50434,2.13532-20.54472.6958-41.15332,1.11155-61.72808a50.6267,50.6267,0,0,1,.42234-7.77059c1.0585-3.27807,1.06231-6.667,1.06012-10.07447q-.02858-44.0961-.00279-88.19221c.00821-9.76293,1.368-11.18348,10.8186-9.52658,25.06739,4.395,50.22139,2.30743,75.36776,1.45594a4.355,4.355,0,0,0,1.1882-.15321c2.34766-.76165,5.79969.23782,6.7178-2.79536.75237-2.48573-1.61112-4.36057-3.23983-6.07-2.79639-2.935-4.68185-6.42391-6.74492-9.86031-10.2777-17.118-20.57649-34.24217-32.32712-50.402-5.22524-7.18574-13.50874-10.50714-21.1618-14.3198a83.73607,83.73607,0,0,1-16.237-10.11205,24.09875,24.09875,0,0,0-8.80886-4.978C1305.31828,415.13231,1304.97991,414.27423,1307.19319,408.31126Z"/><path class="cls-6" d="M1617.14851,868.78625c16.99961-.07354,33.99921-.12343,50.99852-.23558,4.79923-.03164,9.59861-.20877,14.3949-.39512,1.83065-.07106,3.03555.09918,2.95187,2.48671-.85245,24.3872.55248,48.79286-.55379,73.17963-.30965,6.82768-.60216,5.77884-6.09484,5.76969q-50.109-.0834-100.21783-.0148c-1.79943.00066-3.60019.17353-5.39816.14379-2.5367-.0419-3.58817,1.32456-3.74146,3.66067-.1442,2.19444-.40915,4.389-.40974,6.58353q-.00968,34.19587.05246,68.39182.05453,120.89043.11724,241.78086c.00718,8.39669.34629,16.79293.50089,25.18991.0809,4.39166.051,4.47648-4.0558,4.49084q-38.70809.13538-77.416.18753c-4.03382.00513-4.12776-.08849-4.1367-4.53333-.03649-18.19719-.33075-36.40126.06536-54.5898.63147-28.99994.20033-57.993.1933-86.98992-.01378-57.19636.22128-114.39272.26979-171.58908.00791-9.39453-.34541-18.79149-.65887-28.18309-.16589-4.97541-.29368-5.10939-5.18025-4.95146-35.4018,1.1437-70.81107-.1884-106.214.35491-1.79093.0274-3.5848-.14086-5.37735-.218,1.14936-3.797,4.46906-2.76024,6.9728-2.81525,13.938-.30671,27.8645,1.13915,41.817.29579a149.54912,149.54912,0,0,1,26.14553.47541c-15.26436-1.87952-30.54263.15039-45.81358-.24254a61.423,61.423,0,0,1-8.33978-.57078c-6.32726-1.02942-7.79535-3.63371-5.11005-9.41314.84176-1.81155,1.74639-3.60851,3.67156-4.56095a2.4557,2.4557,0,0,0,2.89076-.42933c11.53755-8.58143,22.0503-18.41482,33.51033-27.09859,15.90813-12.05442,33.0282-22.43435,48.39484-35.22137,1.5062-1.25343,3.25024-1.31987,5.07386-1.31892q69.47567.03516,138.95134.02483A5.40237,5.40237,0,0,1,1617.14851,868.78625Z"/><path class="cls-7" d="M1591.81133,975.84709a2.416,2.416,0,0,1,.22569-2.41969c1.12664-.91141,2.31879-.63818,3.52046-.1947a133.72551,133.72551,0,0,1,17.55663.04146c3.32263-.93676,6.71795-.40531,10.07224-.41307q36.38373-.08462,72.76745-.01348c2.172.00241,4.37527-.3303,6.5166.34546,1.065.30993,1.50722,1.21541,2.01867,2.07283,7.37462,12.35754,14.4478,24.90818,22.19919,37.025,16.5928,25.93811,31.43979,52.93107,48.24478,78.74773,13.08273,20.09868,25.30377,40.75834,37.88311,61.18388,12.26339,19.91255,24.14371,40.07144,36.82637,59.71318,17.67635,27.37636,33.25153,56.04416,51.50088,83.05748.75881,1.12326,1.7817,2.19876,1.6268,3.80578-.83575,1.65727-2.41639.95874-3.67742.9539-78.02141-.30078-156.04371.6814-234.06585-.25726-22.00063-.26445-44.01019.22107-66.01565.36216-.60026.00381-1.20036.00806-1.80061.00381-5.63044-.04014-5.66151-.04073-5.66429-5.46613q-.00924-18.00066.04015-36.00145c.17659-53.60133.42616-107.20273-.161-160.80354-.02843-2.59015.1971-5.18316.30438-7.77484,3.593-1.60747,4.48986,1.48337,5.75749,3.49994,5.53576,8.80573,10.7884,17.78441,15.842,26.87539a92.67457,92.67457,0,0,0,29.6342,32.4749c22.61832,15.21089,46.81317,27.66161,70.56912,40.89833,24.62951,13.72363,49.05371,27.81133,74.37931,40.25084,3.58056,1.75866,6.7521,4.27812,10.40432,6.98979-9.09493-17.283-20.37793-32.652-29.73048-49.18418-10.83589-19.154-23.94338-36.91981-34.81928-56.03273-20.476-35.98328-43.373-70.47667-64.791-105.87979-9.60842-15.88261-20.38964-31.09379-29.72945-47.18115-2.81661-4.85154-7.4136-5.88213-12.24756-6.22415-7.18338-.5083-14.39768-.19573-21.59924-.1427-3.229.02374-5.64685,1.71485-7.94879,3.74374-1.16929,1.03059-2.4479,2.57183-4.12072,1.8949-1.91872-.77662-.70723-2.82148-.99255-4.28221A3.75309,3.75309,0,0,0,1591.81133,975.84709Z"/><path class="cls-8" d="M1306.07153,620.57107c-.03209,17.20161-.16545,34.40388-.044,51.60438a146.42811,146.42811,0,0,1-1.33665,19.08055c-2.86863,9.48361-8.74541,17.40093-13.76153,25.71146A343.51272,343.51272,0,0,0,1273.71,748.43661c-3.07468,6.55327-7.47471,12.24239-11.59206,18.11939-.81114,1.15776-1.67663,2.27685-3.34213,2.105-3.00257-1.78877-1.87021-4.31072-.6004-6.2128,4.38231-6.5647,6.91359-13.03125,1.6315-20.39236-5.7506-8.01372-12.99172-13.20669-23.10969-14.3057-24.5256-2.66413-44.52969,6.48266-61.77322,23.09129-5.038,4.85256-9.96973,9.81859-14.84817,14.83085-4.50965,4.63324-9.46751,6.53928-15.62427,3.44237a10.635,10.635,0,0,0-2.84789-.91742c-1.186-.21888-2.48938-.46193-3.277.7222a2.467,2.467,0,0,0,.80718,3.67539c10.243,4.21724,7.919,12.10409,6.51462,20.167-1.27092,7.29665-5.15116,13.29657-8.3249,19.67287-.69785,1.402-2.03311,2.89056-3.76433,2.44027-1.5739-.40926-1.49462-2.2189-1.35613-3.60917.5176-5.19561-2.46263-6.64023-6.92422-6.69165a19.27472,19.27472,0,0,0-8.19264,1.48315c-7.67966,3.41241-15.48395,4.28595-23.07173.12307-4.92928-2.7045-7.4487,1.08685-10.42021,3.28575-3.07878,2.27832-.198,4.64893.69353,6.86065.98948,2.45478,1.161,5.049,1.63684,7.59581.65015,3.47959-.796,5.6045-3.91782,7.16853a33.81014,33.81014,0,0,1-19.22293,3.35469c-5.56485-.61211-11.11506-1.16209-16.7164-1.26039a14.864,14.864,0,0,1-6.872-1.93505c-2.585-1.41488-3.52436-3.172-1.10525-5.64545,3.83935-3.92541,5.561-9.073,8.20964-13.72532-1.7968-.99624-2.91978.27916-4.21517.48076-4.42026.68784-6.73957-1.01192-7.50717-5.55184-1.34683-7.96457,5.716-17.617,13.95731-18.80614,2.70729-.39058,5.557-.419,5.38131-4.07755-.80263-16.71337,6.75151-30.40272,15.48359-43.72991,2.07281-3.1638,3.96494-6.51914,3.38176-10.59347,5.81479-11.634,13.22187-22.31414,20.19415-33.23688,13.10779-20.53476,25.508-41.50515,38.4671-62.118,13.0721-20.79283,25.48951-41.97405,38.49325-62.80182,8.66819-13.88369,16.90714-28.03508,25.35228-42.05821,2.25856-3.75044,4.26814-7.66705,7.20155-10.976a7.13364,7.13364,0,0,1,5.22465-.62573c19.5876,3.375,38.987.22683,58.36054-1.98061,10.09657-1.15043,20.22127-2.14953,30.29746-3.54426,3.67845-.50915,7.69981-.8085,10.13921,3.209.12574,33.67032.02228,67.337.04543,101.00356C1306.55821,617.85,1306.79825,619.27266,1306.07153,620.57107Z"/><path class="cls-9" d="M571.28122,868.72809a1.74571,1.74571,0,0,1,1.90576-1.05389c7.79272.23023,15.59225-.31389,23.38548.4289,9.17347.87434,18.38981.57415,27.58922.62455,18.20473.09984,36.41377.34759,54.61242.03362,5.25593-.09068,7.64771,1.87872,9.90847,6.3322,18.28921,36.02687,35.09969,72.75483,52.34425,109.27872,15.10806,31.99891,30.48929,63.86889,45.74089,95.80011,4.22272,8.84082,8.35714,17.72442,12.66383,26.52392.92317,1.88611,1.531,4.14684,3.637,5.25728,2.02226-.82475,2.36092-2.73555,3.16231-4.25584,15.668-29.72573,29.73582-60.22581,44.14816-90.56693,11.15067-23.47462,21.76711-47.21844,33.9581-70.19706,2.15137-4.05506,3.79547-8.37713,5.72152-12.55386,9.54159-20.69152,19.76448-41.05216,29.77561-61.51638,1.56877-3.20679,3.55366-4.47479,6.86757-4.50827,5.39875-.0545,10.80966-.53094,16.192-.295,20.19878.88555,40.40246.40377,60.60372.51233,3.6.01934,7.19965.16335,10.79867.274.98991.03047,2.02475.07325,2.2294,1.39591-3.00969,4.74444-4.05756,10.55969-8.26467,14.68976-1.53155,1.50352-2.51282,3.5732-3.98172,5.21033-18.83392,24.06914-37.18461,48.56937-57.04786,71.75633-21.63214,25.25195-40.75783,52.288-60.34191,79.027-6.72719,9.18481-13.00711,18.70307-19.15932,28.29451a1308.95446,1308.95446,0,0,0-72.05422,131.1477c-.64532,1.32412-1.06033,2.78566-2.2201,3.81018-2.59232.93251-3.43972-1.061-4.42773-2.70567-1.6071-2.6749-3.34337-5.26322-5.1017-7.83791-17.87075-27.97733-33.62-57.21416-50.83439-85.58559-22.29078-36.73785-43.09288-74.355-65.30476-111.144-21.801-36.10868-42.3433-72.96961-64.92608-108.61343a79.0059,79.0059,0,0,1-6.70872-13.398c-1.31144-3.33842-3.36344-4.59588-6.83717-4.43538-3.99176.18445-8.0011.11493-11.99946.00974C575.18711,870.412,572.8223,870.92282,571.28122,868.72809Z"/><path class="cls-10" d="M1176.3133,1056.20828q13.81715.00945,27.63428.01876c-.5028,4.84055-3.01122,8.35419-6.76265,11.39968-9.17918,7.45194-19.88194,11.7001-30.89419,15.41065-3.16774,1.06737-5.65286.25741-8.25493-1.82121-5.32789-4.25622-10.57217-3.62382-15.29505,1.44857-1.08708,1.16758-2.15181,2.36629-3.155,3.60316-5.331,6.57284-11.88193,8.95436-20.203,6.51094-8.3493-2.45163-16.90786-2.22476-25.51523-1.5964-4.9915.36429-8.12369,2.55506-10.01465,7.11615-1.21809,2.93788-2.22588,6.00894-4.03535,8.67029-.63931.94034-1.3365,2.20183-2.76188,1.82787-1.34829-.35359-1.51272-1.71983-1.73232-2.86946a28.62347,28.62347,0,0,1-.23616-5.3761c-.01018-14.17289-.0326-28.34586.01737-42.51861a33.6092,33.6092,0,0,0-1.14921-9.4754,50.81371,50.81371,0,0,1-.41282-8.39185q-.0145-80.40563.02286-160.81131c.00271-3.53636-.65836-7.274,1.94986-10.35283,14.37329-.04762,28.74664-.12651,43.11993-.13765q119.84019-.09262,239.68024-.13932c4.58425-.00147,9.16849.26569,13.75274.40794,1.83871,2.41793.4071,4.5956-.64114,6.67568-10.01875,19.88047-21.72585,38.43051-39.23236,52.86272-8.07159,6.65415-15.11517,14.55762-25.79586,20.19216,4.31079-2.69593,7.74553-2.12375,11.04369-2.17,4.78413-.0671,9.5775-.18138,14.352.06988,1.89454.09962,4.598-.79824,5.14962,2.43075-1.98834.08856-3.97638.25126-5.96486.25492q-80.65916.14866-161.31855.2725c-4.00839.007-4.11456.0389-4.16607,4.46674-.17894,15.382-.35662,30.76482-.38535,46.14763-.03136,16.78678.143,33.574.12867,50.361-.00256,2.91612.435,5.1718,3.89782,5.44466,5.59608,2.83511,12.39243,3.337,17.09479,1.88378C1183.92034,1057.842,1179.65161,1061.10685,1176.3133,1056.20828Z"/><path class="cls-11" d="M1075.5756,1050.18294c1.79907,1.84092,1.05989,4.16208,1.07066,6.27711.07731,15.17917.06617,30.35871.08251,45.53817.00205,1.9119.00022,3.8238.00022,6.72337,3.53725-3.97141,4.19414-8.22645,5.92609-11.887,2.16331-4.5723,4.78721-6.74981,10.30752-7.27848a82.645,82.645,0,0,1,29.133,2.05416c5.63578,1.473,10.1946.36451,13.96207-4.10414,1.79321-2.127,3.95747-3.88269,5.59783-6.20547a11.45471,11.45471,0,0,1,17.89288-.86768c1.556,1.82209,2.83954,2.25135,5.11019,1.51106,11.98906-3.90863,23.511-8.70618,33.28869-16.91123,1.71971-1.44294,3.96494-2.648,2.90336-5.86038-.69888-2.11444,2.5606-1.38213,3.097-2.94535,13.77384-1.26925,27.5764-.99031,41.37545-.71334,25.20675.50574,50.415.4245,75.62378.28972,5.24487-.02806,5.28517-.07677,5.26993,5.06287q-.10353,34.80328-.25807,69.6065c-.02374,5.10016-.08749,5.00588-5.25029,5.236-20.20031.90013-40.39711.37806-60.60343.22686-30.206-.226-60.41716.21449-90.626.40253-4.5715.02842-4.78348.16789-4.783,4.69045.004,32.80279-.41091,65.60491.16934,98.409.32885,18.59378.17153,37.19605.30291,55.79408.01949,2.76149-.34373,4.48176-3.83533,4.47267-28.00614-.07281-56.0128.00748-84.01924.03531a2.842,2.842,0,0,1-.58691-.12292c-3.33766-6.4568-3.00338-13.55661-3.08171-20.43345-.25756-22.58181-.65206-45.18472.016-67.74939,1.49052-50.335-.90272-100.65209-.07942-150.97564C1073.63885,1056.95685,1072.74573,1053.18323,1075.5756,1050.18294Z"/><path class="cls-12" d="M1187.13585,1299.58438c-1.76441-1.13308-.92983-2.90067-.93115-4.35957q-.064-66.26689-.021-132.53373c.00147-4.939.03957-4.8475,4.79454-4.94955,47.98158-1.03,95.97283-.06929,143.95515-.73765,4.33394-.06029,8.79978.69326,12.98586-1.20274,1.54679-7.07821.41062-14.24446.64685-21.36574.10346-3.11948-.01758-5.48225,3.98429-6.75714,3.79817-1.20992,5.81508-5.33559,8.36571-8.35574,12.043-14.26013,25.85493-26.73884,39.81913-38.98108,12.86218-11.276,34.07805-12.117,48.97311-3.0153,3.56883,2.18081,6.64776,5.15986,10.75368,6.47123,2.55312.81545,2.17444,3.02468,2.16594,5.00134-.02813,6.59847.08221,13.19738-.05569,19.79293-2.60441,7.44242-8.3172,12.751-13.45773,18.19945-12.29578,13.03279-21.85907,28.03586-32.1989,42.49444-7.43456,10.39641-14.64652,20.916-23.36936,30.38368-14.15779,15.36684-32.0333,24.23484-51.25,31.09951-25.42232,9.0816-50.54394,18.981-75.97534,28.03739-18.09709,6.44464-36.7827,11.00932-55.012,17.05064-6.22512,2.06324-12.19789,5.14865-19.00186,5.24344-3.32307.04629-3.44969,2.501-3.66863,5.06543C1188.25575,1290.64753,1189.96272,1295.37966,1187.13585,1299.58438Z"/><path class="cls-1" d="M1003.43067,889.37866c2.62119-3.64645,4.75746-7.64313,7.92549-10.89541,1.30462-1.33928,2.19-2.995,1.4914-4.81294-1.69986-4.42388,1.58694-3.22671,3.67808-3.42764l.03759,2.36072c-.96992,2.09891-.49364,4.32624-.495,6.48786q-.04594,75.06461-.04082,150.12913c-.001,2.17679.34329,4.38712-.35127,6.53233q.03232,64.73683.06551,129.47373.03737,64.4385.084,128.87687c.00066.999-.00146,1.998.01158,2.99692.0225,1.7232-.79113,2.58787-2.54389,2.53147-.59878-.01934-1.199.00308-1.79855.011q-41.67015.54632-83.34066.02959c-.19982-.00234-.39956-.011-.59938-.01494-7.4177-.14255-6.58444-.41593-6.54114-6.67891q.24861-35.95119.61241-71.9018c-.86029-13.16457-.1675-26.34349-.3638-39.51421a7.33207,7.33207,0,0,1,.497-2.33032c13.73413-43.00179,24.21977-86.94333,37.48011-130.07272,13.96809-45.43136,27.67913-90.95436,43.46043-135.81084,1.26542-3.59686,2.95663-6.98041,4.48892-10.44893,1.88582-4.26889,3.05064-8.50064-2.7695-10.96362A2.01355,2.01355,0,0,1,1003.43067,889.37866Z"/><path class="cls-13" d="M1591.81133,975.84709c1.771,1.2497.71017,3.39095,1.39468,4.94692.51995-.04139,1.05953.07361,1.21516-.11992,4.14182-5.15136,9.512-6.71077,15.96909-6.133,7.32539.65524,14.70792-.51893,22.07918,1.0544a10.16225,10.16225,0,0,1,7.09648,4.7851c3.38271,5.40635,6.81877,10.78971,9.93565,16.34923,5.66839,10.11051,12.5455,19.40469,18.98017,29.00485,5.32108,7.93848,10.06448,16.26529,15.01963,24.44675,2.788,4.60307,5.328,9.363,8.25375,13.87454,10.84439,16.72114,20.43185,34.23891,32.03652,50.47848a34.18055,34.18055,0,0,1,2.63035,4.69287c5.96515,11.98015,13.39062,23.06338,20.47259,34.38915,8.02456,12.83325,16.69069,25.29525,23.855,38.66258,5.47129,10.209,12.23877,19.61214,18.23454,29.4941q5.89158,9.71047,11.66607,19.49171c.46617.78762,1.22264,1.67266.41883,2.67271a1.31277,1.31277,0,0,1-1.66666-.08014c-6.63677-6.26532-14.70543-10.21175-22.7675-14.20124-16.06684-7.95058-31.76087-16.58006-47.29253-25.54079-11.38089-6.5658-22.94159-12.838-34.51519-19.08121-20.69227-11.16227-41.44681-22.33875-60.21786-36.64336-9.13962-6.965-16.02508-16.05959-21.78345-25.9833-5.8038-10.00225-11.64189-19.98478-17.40451-30.01061-.86916-1.51187-1.87256-2.55858-3.69163-2.58107-.08207-1.18552-.23623-2.3709-.23579-3.5562q.02175-53.72649.08162-107.45289C1591.57657,977.82009,1591.72942,976.83366,1591.81133,975.84709Z"/><path class="cls-14" d="M1187.13585,1299.58438c.0359-5.39976.0636-10.79967.11211-16.19929.01656-1.8366.01157-4.06876,2.5773-3.80812,7.96945.81,14.773-3.12468,21.87269-5.42746,15.72466-5.1,31.77875-9.13346,47.38529-14.54157,20.716-7.17864,41.32649-14.67079,61.6968-22.81432,9.61985-3.84577,19.48531-7.07725,29.24013-10.58518a111.65891,111.65891,0,0,0,48.44144-34.03959,242.9292,242.9292,0,0,0,16.14627-22.21958c8.02323-12.14078,16.75678-23.76418,25.325-35.50354,3.62847-4.97124,8.43459-9.00791,12.49845-13.68664,3.26108-3.75451,5.69462-8.13833,9.3121-11.56729,1.59911,1.47216.85129,3.39637.85246,5.09737q.06462,90.27475.01964,180.54945c-.00059,1.5679.38189,3.21316-.56347,4.68a27.642,27.642,0,0,1-2.953.30737q-129.4244-.00155-258.84894-.06915C1195.88185,1299.75359,1191.49632,1300.338,1187.13585,1299.58438Z"/><path class="cls-15" d="M646.89614,504.13211q.60308-.00429,1.20614-.00887c-.53372,1.285-1.29488,2.51283-1.178,3.97946.79721,9.99514-.5979,19.9272-1.385,29.82341-1.01476,12.75875-.46792,25.51779-1.153,38.24068a394.089,394.089,0,0,1-7.28677,57.21753c-1.5783,7.77726-3.75326,15.45452-6.076,23.04916-.89385,2.92279-.68209,5.90631-1.50817,8.80463a5.14559,5.14559,0,0,0,2.12836,5.77541c3.6484,2.35134,3.08193,5.14359,2.22266,8.82484-3.01291,12.90819-11.417,22.63361-18.70672,33.02687-4.56959,6.51533-10.734,11.79166-14.93866,18.58213-4.4802,7.23541-9.81314,13.88457-13.26957,21.83895-4.44935,10.23944-9.83271,20.06792-14.42348,30.26883-4.08232,9.071-8.52911,17.97808-12.83279,26.94907a35.14311,35.14311,0,0,1-2.24688,4.229c-.73031,1.10422-1.96023,1.6197-3.05566.575-2.14034-2.04142-4.99934-3.63943-5.77281-6.70089-3.477-13.76165-9.87161-26.50428-13.85356-40.0888a69.92624,69.92624,0,0,0-7.49219-17.51169c-3.24089-5.20074-4.19611-11.13371-5.15859-17.02273a13.14,13.14,0,0,0-1.42516-4.5227c-4.26294-7.42638-7.348-15.45218-11.88493-22.7552-4.52776-7.2883-7.05754-15.56338-10.76134-23.2712-2.06952-4.30683-3.85133-8.75188-5.76566-13.13336a7.45992,7.45992,0,0,0-4.63074-4.40447c-1.47626-.46846-1.48718.79545-1.71213,1.71961-3.53538-7.50872-7.10076-15.00366-10.56364-22.54563a8.98485,8.98485,0,0,1-.26316-2.93509,15.2023,15.2023,0,0,0,5.30206-.74718c6.78357-2.45046,13.67994-2.05533,20.65025-.885a50.08966,50.08966,0,0,0,17.29639-.00037,31.05,31.05,0,0,1,16.41852,1.44228c5.61131,2.00361,10.57111,1.72276,15.17276-2.024,2.63416-2.1447,5.75049-2.537,8.89255-3.10263a36.078,36.078,0,0,0,5.74276-1.56834c1.90268-.68184,2.2856-2.10426,1.226-3.81259-.83788-1.35093-1.48616-3.10578-2.721-3.86812-3.1803-1.96347-2.33766-3.65144-.73493-6.28722,3.20162-5.26527,6.813-9.79538,12.9645-11.72779,1.33452-.41937,2.60691-1.11645,4.0306-.95163,9.30478,1.077,14.79951-4.54409,19.72118-11.16418,5.47986-7.371,10.24421-15.21308,14.96364-23.07458,3.70043-6.164,7.3544-12.37812,12.03119-17.83854,5.08052-5.93172,6.303-13.13951,7.60353-20.38258,1.66337-9.26407,4.08174-18.26707,8.70159-26.56486C643.547,507.46526,644.72763,505.40074,646.89614,504.13211Z"/><path class="cls-16" d="M1462.05208,1299.5186q-.07474-93.37062-.15534-186.74137c-.00117-1.19563-.09789-2.39112-.15168-3.586.067-6.77662.08837-13.55478.23023-20.33053.04909-2.35039-.61637-3.667-3.2076-4.03008a8.615,8.615,0,0,1-4.229-2.06727c-9.62586-8.52348-21.16458-10.724-33.40218-9.6192a33.86164,33.86164,0,0,0-20.81726,9.478c-9.85887,9.57137-20.35712,18.46464-29.81987,28.45992q-7.591,8.018-14.46964,16.61441c-.85773,1.07389-1.61186,2.60355-3.24145,2.17422-3.50317-.92269-3.58187,1.20948-3.57908,3.62426.00674,5.58487.03487,11.1707-.06668,16.754-.03444,1.89644.74709,4.05249-1.22337,5.55235q-.06814-57.215-.13746-114.42979c-.00088-.79882-.00073-1.59809-.02681-2.39632-.146-4.47942-.14875-4.483-4.769-4.47671q-57.53139.07913-115.06277.15076c-1.99214.00212-3.98429-.14065-5.97643-.216a2.14993,2.14993,0,0,1,.92705-2.07569c13.80227-7.8629,22.9372-20.84514,34.3433-31.33048,5.57929-5.129,10.771-10.68012,16.12721-16.05117,1.69231-1.697,3.89988-3.2339,4.64946-5.41478,2.31982-6.74806,7.40086-6.83288,13.292-6.81655q79.65568.22086,159.31226.06754c2.17679-.001,4.39066.36634,6.53419-.35806,4.74544-1.35041,5.28077.33279,5.2988,4.33906.09276,20.59351.40681,41.18651.43758,61.77987q.17872,120.26851.237,240.53733c.00542,5.59827.14259,11.19684.126,16.79483C1463.22767,1297.17421,1463.87056,1298.78783,1462.05208,1299.5186Z"/><path class="cls-17" d="M1003.43067,889.37866a3.60782,3.60782,0,0,0,2.61489,2.15972c4.14586.7956,4.57392,1.429,4.62609,5.15854a14.59988,14.59988,0,0,1-1.82736,6.87676c-4.95933,9.59664-8.2536,19.82611-11.43518,30.06291-5.25177,16.89819-10.98581,33.63208-16.48289,50.4461-4.63231,14.16887-8.53754,28.57668-12.69357,42.89938-2.65988,9.16628-6.06282,18.08416-8.88764,27.20238-4.00444,12.92511-7.10146,26.08323-10.88615,39.05734-4.61224,15.81141-8.52977,31.82706-13.76358,47.45395-2.47033,7.37546-3.409,15.11543-5.70979,22.51412-1.70858,5.49441-2.78943,11.24666-6.05271,16.14816-1.21985,1.83213-.97189,3.82519-.97827,5.79144-.03172,9.786.00565,19.57215-.02659,29.35815-.00719,2.18923-.1963,4.37774-.30174,6.56785-1.04649-9.348-.6799-18.73516-.708-28.10816q-.15629-52.15839-.21688-104.317c-.00381-1.983-.00037-3.966-.00037-5.825-2.58309-.83852-2.67959,1.14289-3.1618,2.18938-10.94616,23.7543-22.70881,47.13486-32.66681,71.34369-1.417,3.44494-2.51517,7.10854-5.08258,9.99265-4.3675,1.19944-6.48948,4.91783-8.95724,8.16286-2.77785,3.6529-4.903,7.78385-7.84606,11.31786-4.06482,4.88113-7.14455,5.54407-13.03327,3.00791-1.11382-.47951-2.39016-1.36485-3.39114-.85676-6.65391,3.37607-14.4684,1.79923-21.13051,5.181-7.40657,3.75963-12.75432.89485-14.52123-7.26654-1.55111-7.16457.861-13.64775,4.03067-19.54431,7.74121-14.40181,15.21021-29.03217,25.88079-41.63848,2.25256-2.6612,3.28673-5.82506,4.118-9.18268a58.55823,58.55823,0,0,1,9.72229-20.3602c5.79765-8.03921,10.88813-16.65163,12.093-26.875,13.65587-20.83758,27.46891-41.548,43.09729-61.01217,7.23115-9.006,13.62428-18.6819,20.48182-27.99183a69.7647,69.7647,0,0,1,7.187-8.78493c10.05488-9.78944,18.31266-21.06782,26.8332-32.109,7.79513-10.10128,15.59327-20.17619,23.94514-29.8359,4.55259-5.26542,8.49577-11.05987,12.66485-16.65221A7.11878,7.11878,0,0,1,1003.43067,889.37866Z"/><path class="cls-18" d="M571.28122,868.72809c6.798.0274,13.59638.1046,20.39383.05728,2.7004-.01875,4.033.75341,5.06455,3.68177,3.134,8.89641,8.31544,16.81871,13.39538,24.705,11.57646,17.97157,21.62635,36.85118,32.89968,54.98954,10.86036,17.47411,20.88248,35.43205,31.36688,53.119,15.77448,26.61116,31.95079,52.99011,46.74678,80.188,8.19741,15.06841,17.498,29.54179,26.43649,44.201,7.90007,12.95624,15.82409,25.90551,22.84481,39.35569,4.35585,8.345,10.02754,15.85149,14.49777,24.09918,1.32873,4.023-1.31481,4.40118-4.13347,4.30023a8.18247,8.18247,0,0,1-4.78538-2.32724c-3.42294-2.87327-6.573-3.47907-9.77944.4338-1.75342,2.13987-4.44246,2.61791-7.10073,2.65146-4.33739.05465-6.35913,2.43683-5.94375,6.48113.85055,8.28123.66488,16.84244,6.277,23.96306,2.23248,2.83269,3.3704,6.31631,4.30082,9.8323a70.23769,70.23769,0,0,0,11.45622,24.24582c4.25049,5.71827,6.443,12.44215,8.32651,19.15621,2.24,7.98515,7.35938,11.50173,15.322,11.54407,7.71131.04088,15.61255,1.41012,22.039-4.97812,2.1137-2.10118,2.68083-1.56688,3.66137,1.64057-1.98687,2.66333-1.01923,6.87918-4.5819,8.71446a299.59177,299.59177,0,0,1-36.50353.0211c-5.31551-8.104-8.799-17.12711-12.73585-25.89709-5.58193-12.43527-11.24241-24.83595-16.52392-37.41289-6.93081-16.50431-14.36486-32.80088-21.76989-49.10184-10.82255-23.82411-21.79788-47.57906-32.74126-71.34823a167.23586,167.23586,0,0,0-7.73307-15.03676c-1.42428,4.91812-.58406,9.96026-.87408,14.911-.31536,5.385-.68993,10.76766-.9206,16.15636-.22113,5.16542-.15541,10.35041-1.258,15.58308-2.67629-1.12582-2.71227-3.58675-3.4461-5.51389-7.39682-19.42388-15.40357-38.58515-24.25559-57.39524-2.38071-5.05877-4.59231-10.2061-6.66586-15.39885-17.56344-43.98535-37.00266-87.18558-54.84447-131.0549-7.37565-18.13507-14.52246-36.36895-23.21175-53.953C574.22533,878.73487,572.99295,873.6131,571.28122,868.72809Z"/><path class="cls-19" d="M1075.5756,1050.18294c-.00124,30.74812-.5195,61.50942.26605,92.23746.2898,11.33684,1.20666,22.7366.61073,34.02831-1.8,34.10925-.37764,68.22341-.96309,102.32687-.1201,6.99814,1.91953,13.83278,1.23626,20.84132q-1.29342.02571-2.58918.05157a193.96154,193.96154,0,0,0-28.54045.00762c-1.68293.22928-3.34674.36436-3.41854-2.03643-.0477-1.59691.00183-3.19881.05737-4.79674.74365-21.39219.47525-42.78188.133-64.17919-.22378-13.99028.27866-27.99066.28554-41.9865q.06342-129.27512.0225-258.55021c-.00953-18.59525-.24415-37.19166-.58025-55.7839-.05122-2.83635.37047-3.92115,3.43269-3.83039,9.99149.29638,19.99031.34458,29.98664.4883.03905,2.197.112,4.394.11152,6.59093Q1075.608,962.88745,1075.5756,1050.18294Z"/><path class="cls-20" d="M1072.78149,729.60146c2.56293,2.19737,1.79547,4.83022.38929,7.0147-3.55586,5.52392-5.57731,11.94439-9.98116,16.9535-5.03069,5.72207-6.23017,12.89485-6.69384,19.99532-.251,3.84417-1.90268,7.63405-.53343,11.73841.76951,2.30673-2.19518,4.9056-5.11906,4.27438-4.78282-1.03243-7.52132,1.5386-10.27792,4.52585-3.08691,3.345-5.07341,7.12817-4.68528,11.85987.44461,5.42181,3.46822,6.92386,8.02045,3.949a8.76892,8.76892,0,0,0,.89055-.80065c.9634-.84233,1.99523-1.42462,3.15755-.39454.99564.8824,1.46678,2.17.67873,3.21573-3.13036,4.15373-5.16237,8.922-7.69021,13.40725-.81054,1.43818-2.755,1.4414-3.63448,3.03143a11.69409,11.69409,0,0,0,8.388,3.25821c7.62748-.38362,15.05289,1.4055,22.63465,1.47854,5.4866.05289,9.98453-2.47661,14.84194-4.13015a2.36061,2.36061,0,0,0,1.69458-2.84243c-1.48048-4.2146-.18824-9.32384-4.26983-12.72153-2.29-1.90633-.87151-3.59591.88814-4.83169,2.40357-1.688,5.40051-2.5177,6.85211-5.51279.585-1.20728,1.84428-1.00635,3.09732-.29162,10.27733,5.86235,14.27158,6.39622,24.4719,2.01841a24.65995,24.65995,0,0,1,11.06018-1.78561c5.99043.22393,7.92871,2.981,6.499,8.9849a12.04414,12.04414,0,0,0-.14632,1.802,12.56519,12.56519,0,0,0,5.6974-7.44366c.98333-2.80544,1.53456-5.78,3.88435-7.94618a3.1377,3.1377,0,0,0,.89385-2.14074c-.1294-4.64892,1.0607-9.03574,2.18324-13.48849.74233-2.94455-1.19633-5.6634-5.20164-6.96936a6.86912,6.86912,0,0,1-5.05165-5.2805c-.75-3.08256,1.19618-5.14946,4.355-4.53795a19.5556,19.5556,0,0,1,5.62231,1.96347c4.88415,2.67872,8.74336,1.22567,12.33571-2.45551,4.74478-4.86208,9.48634-9.7364,14.42333-14.40027,9.90056-9.353,20.7955-17.193,33.502-22.48922,4.25012-1.77154,8.67492-1.58167,12.86774-2.01152,8.24672-.84556,16.89278-1.89439,24.93755.91464,10.73624,3.74886,18.1116,11.21538,21.1747,22.46336a6.21765,6.21765,0,0,1-.77816,4.60365,77.6266,77.6266,0,0,1-4.66162,8.35156c-1.00809,1.48608-2.645,3.37066-.32783,5.256,1.72866,2.9578-.76145,4.858-1.93557,6.92679-8.1648,14.38657-18.133,27.59319-27.236,41.36766-4.71862,7.13988-8.901,14.62808-15.21072,20.59153a13.77646,13.77646,0,0,1-3.67668,2.97546c-1.18424.10775-2.36862.30905-3.55286.30956q-53.47551.02319-106.951-.0019c-1.18775-.00052-2.3755-.17354-3.56326-.26613a168.8583,168.8583,0,0,0-29.91454.03626,36.32531,36.32531,0,0,1-9.70748-.01809,26.99654,26.99654,0,0,0-11.8982.01113,22.34658,22.34658,0,0,1-6.89557.24708,6.46975,6.46975,0,0,0-5.16112,3.24049,15.97224,15.97224,0,0,1-5.85421,6.30847c-8.705.99426-17.43734.25484-26.15571.40486-1.16643.02-1.83732-.55884-1.72023-1.81769,9.23678-13.61039,16.982-28.14215,25.84342-41.975,13.36073-20.85641,24.90136-42.802,38.42555-63.55171C1066.918,738.509,1069.85585,734.05919,1072.78149,729.60146Z"/><path class="cls-21" d="M1305.9962,812.59485c3.40294-2.99194,2.07641-7.49575,3.51886-11.1244.34922-.87882-.06448-2.04771.242-2.9592.59776-1.77807.81538-4.24662,3.85694-3.14475,2.00343.72572,5.05436.01107,3.84389,4.207-.95885,3.323,2.04476,6.37483,6.05894,6.98305,1.725.26122,3.91438-.25514,3.93212,2.457.01656,2.54913-1.60878,4.59435-3.89988,4.51912-5.97028-.19625-7.07919,3.1539-6.78448,7.98243.11943,1.95608-.869,2.87613-2.77324,3.16226a3.17356,3.17356,0,0,0-2.73938,3.42054c.061,2.0072,1.6633,3.17573,3.51021,3.54178,7.06439,1.39986,14.18344,2.1937,21.32916.67063a19.4518,19.4518,0,0,1,4.73753-.5072c10.9754.37022,21.834-1.25556,32.7524-1.80745a42.32539,42.32539,0,0,1,10.568,1.318,16.63458,16.63458,0,0,0,7.118.32378,44.43463,44.43463,0,0,1,11.26673-1.06019,7.42123,7.42123,0,0,0,3.4557-.82592,3.01721,3.01721,0,0,0,1.90216-3.36151,2.92617,2.92617,0,0,0-2.65541-2.81342c-2.18236-.20752-4.40194-.02351-6.58357-.23558-3.33552-.32414-4.85491-1.80129-4.222-4.90728.5-2.45405-.67279-3.67173-1.92136-5.24791-1.86494-2.35428-3.47152-4.87315-1.63545-7.9686,1.83446-.17493,1.45358,1.25482,1.92619,1.95021.46954.69078,1.068,1.40514,1.87154,1.28486,1.22249-.183,1.32771-1.30251,1.32565-2.32446-.00366-1.791.2336-3.61628-.50235-5.32952-.98963-2.30358-.58765-4.72546-.66606-7.10618-.08616-2.62443.3926-4.8229,3.66424-5.07115,2.64808-.20079,4.58541.07911,4.99647,3.48522.319,2.64267,1.80091,3.661,5.10874,3.07128,5.237-.93361,10.52477-1.99439,15.96059-1.85213,6.25809.16387,6.44611-.31316,4.39652-6.37168a2.86843,2.86843,0,0,1,.11475-1.12136c9.25158.79582,9.97976,1.4036,9.905,8.64069,7.04225-2.33581,13.89957-.96291,20.74077.74747,4.0747,1.01866,7.27775,2.74428,8.51079,7.35533.83018,3.10431,1.9155,3.0723,4.52973.67619.43568-.39915.7257-1.10018,1.21868-1.27145,4.88275-1.69587,5.72129-4.86816,2.85485-9.509,3.06384-.19075,4.75849.804,5.95636,2.84822.70532,1.20362,1.44963,2.38446,2.15569,3.58764,3.90339,6.65165,6.2764,7.53925,14.07806,6.02519,4.27167-.82893,8.51739-2.00061,12.93457-1.94853a41.81107,41.81107,0,0,1,10.67059.99668c3.67712.99456,6.58928-.54778,7.57231-3.13764q1.71921-4.53043-3.88244-7.7125a3.6893,3.6893,0,0,0-1.06187-.54749c-6.97865-1.21014-8.12039-6.65224-8.95834-12.31264-.498-3.36311.69917-4.7306,4.238-4.87615,5.86945-.24144,10.07883,4.06993,9.98856,10.02634-.023,1.5271-1.06173,3.04967-.03019,4.99636a44.50242,44.50242,0,0,0,11.93586-6.34458,87.379,87.379,0,0,0,13.348-11.91831c6.872-7.418,3.89518-13.95036-4.40971-17.99912a2.82592,2.82592,0,0,0-3.2923.72557c-1.31408,1.22787-2.58214,2.5054-3.86016,3.77157-2.53993,2.51661-5.11709,4.04268-9.059,2.62231a9.87,9.87,0,0,0-8.14619.8249,10.15266,10.15266,0,0,1-2.768,1.09806c-1.67941.3659-3.24115.04637-4.10943-1.63068-.76409-1.47546.02462-2.61447.94463-3.77435,4.69313-5.91788,11.23376-8.22147,18.34226-8.72933,9.734-.69546,11.00866-2.30329,7.06907-11.144a76.22594,76.22594,0,0,0-11.227-17.52993c-5.07942-6.14914-9.96115-12.42815-12.94878-20.4385-4.35051-11.66486-10.60449-22.77835-22.33548-29.33295-2.39193-1.33649-4.29365-3.54228-6.44392-5.32021-4.10929-3.39746-4.68946-3.33146-9.37013-.94708a40.92947,40.92947,0,0,1-8.3263,3.2473c-3.2709.83735-5.20178-1.11359-5.00292-4.50461.44447-7.57223-2.032-10.95307-9.21861-12.585-4.96292-1.12706-6.09294-4.03813-4.22829-8.85246,1.68-4.3373,5.7698-5.94711,8.7208-8.803,4.75248-4.59918,5.38892-6.18444,3.23074-12.54206a65.77476,65.77476,0,0,0-7.64866-14.85774c-4.8067-7.317-8.48016-15.35175-14.07191-22.16954a12.45275,12.45275,0,0,0-1.42164-1.9097c-7.96726-6.4697-12.39792-15.54873-17.47779-24.06881a240.48107,240.48107,0,0,0-19.90648-29.00415,45.32467,45.32467,0,0,1-4.41836-6.369c-1.90143-3.38711-1.46736-4.34474,2.44732-6.98774q8.10537,12.22621,16.21236,24.45155c3.36557,5.07035,6.77334,10.11289,10.10755,15.20378,5.36329,8.18916,10.98434,16.22944,15.95137,24.654,8.483,14.38767,18.217,27.9333,27.37607,41.86533,8.17373,12.43307,16.61814,24.70908,24.27267,37.45669,8.08654,13.46725,17.79476,25.81908,26.05,39.12407,7.36334,11.86755,15.5063,23.20468,22.93573,34.999,12.924,20.51733,28.03,39.54088,40.72405,60.19336,9.216,14.99383,18.87964,29.68074,29.19822,43.93832.79911,1.10406,1.79255,2.199.987,4.41231l-24.1742-1.113c-5.09232-1.60153-10.57371.55855-16.19375-1.42331,3.798-3.5373,8.22459-2.952,12.19188-3.52522,3.74732-.54141,7.5392-.875,11.29458-1.44572,3.17711-.48266,4.36633-2.06551,2.39778-4.89292a105.491,105.491,0,0,0-11.11638-13.33921c-2.22192-2.27823-4.67276-1.985-6.90948.07216-5.06155,4.65507-11.19449,7.74371-17.02174,11.16322-10.06608,5.90682-20.85669,5.99817-31.67323,1.87484-2.4394-.92987-4.86092-2.42841-7.4454-1.948-7.497,1.39363-14.71159-.43674-22.01807-1.38617a49.08115,49.08115,0,0,0-10.783-.18723c-12.37858,1.13842-24.52122,1.56233-36.81069-1.99168-7.93267-2.29406-14.8681,5.40424-13.59828,13.6887.35845,2.33911-.47129,2.73731-2.45112,2.82038-2.35851.09882-4.78751-.59833-7.07553.50039-21.2295.28825-42.45929,1.0292-63.6885-.01575a172.53765,172.53765,0,0,0-29.94883.00784c-13.62407.91581-27.24814.44889-40.87221.0019a3.34074,3.34074,0,0,1-.774-2.60524c2.616-7.01843,3.52794-14.12007,1.00091-21.38749A3.82871,3.82871,0,0,1,1305.9962,812.59485Z"/><path class="cls-22" d="M824.56744,1290.0678c-.17058-.76344-.292-1.69463-1.31239-1.59471-.49481.04864-.982.59188-1.3957.99082-9.73431,9.3856-21.22723,5.38628-32.24872,3.98408-2.78056-.35367-4.377-3.36934-5.43568-6.017-2.14521-5.365-4.363-10.71806-6.12078-16.21379a26.07424,26.07424,0,0,0-4.22835-7.85212,66.43881,66.43881,0,0,1-11.85746-25.8864c-.94493-4.1634-3.40631-7.63177-5.65257-11.13048a21.14239,21.14239,0,0,1-3.775-12.36406,15.53473,15.53473,0,0,0-.75295-5.89759,11.52771,11.52771,0,0,1,.0066-6.49006c.88755-3.99858,1.46413-4.87629,5.31843-4.8886,4.1866-.01333,7.80349-.28378,10.0814-4.72789,1.16467-2.27245,5.3331-1.87454,7.95282.31689,1.528,1.27827,2.84,2.78508,4.74083,3.603,2.94044,1.26537,4.61656.42912,5.03986-2.776a30.176,30.176,0,0,1,5.85963,8.64618c.58355,1.1867,1.13463,1.97842,2.47582,2.04625,1.3033-.86585.20538-2.61674,1.31129-3.5554,3.60239-10.60834,8.87254-20.44254,14.13976-30.27051,2.44541-4.56285,5.22246-8.94908,7.63856-13.52658,5.68-10.76122,11.41657-21.49943,16.77626-32.42055,3.88076-7.90765,9.06166-15.00131,13.35538-22.64774,5.65154-10.06429,11.81958-19.83908,17.798-29.71877.72005-1.18977,1.64189-2.25736,2.47149-3.38084.94507.46669,1.743,1.10656,1.58453,2.264a11.57268,11.57268,0,0,1-.87144,4.06268c-4.29848,7.58211-6.4897,16.24587-12.6074,22.93474-4.7804,5.227-7.15774,11.95018-8.54172,18.82079a20.10517,20.10517,0,0,1-4.47749,9.57723c-6.17683,7.10062-11.046,15.07932-15.71644,23.19274-3.17932,5.52312-6.63582,10.92156-9.352,16.667-3.02368,6.39593-5.90667,12.92584-4.26412,20.4744,1.46356,6.72623,7.22017,9.4672,12.696,5.31435,2.60456-1.97519,4.87243-3.25946,8.0902-1.983,2.27036.90086,4.282-.265,6.27407-1.10392,4.38164-1.8451,8.65521-4.61259,13.00652.28847,1.079,1.21541,2.98492.66469,4.5279-.035a15.35373,15.35373,0,0,0,6.07843-5.56253c3.57462-5.01731,6.25135-10.688,10.82643-14.98695,1.31217-1.23292,2.50608-2.606,4.31079-3.13881,1.10635-.32679,1.33086.43922,1.47154,1.26881-3.21374,6.81017-5.69557,13.93892-9.32023,20.58347-2.0378,3.7356-3.27406,7.89959-5.03458,11.79694-3.98561,8.823-8.39063,17.47081-12.04072,26.42773-5.061,12.41959-10.57738,24.63289-15.91348,36.9281q-5.471,12.60623-11.01108,25.18214C826.018,1288.29186,825.99121,1289.67751,824.56744,1290.0678Z"/><path class="cls-23" d="M1305.964,514.93332c-7.13516-2.84049-14.16335-.02106-21.1996.54906-8.88214.71971-17.75989,1.74954-26.55879,3.15218-6.48406,1.03364-13.03437,1.27863-19.52546,1.90029-8.87526.8501-17.91054,1.19348-26.8384-.36542-3.12567-.54584-6.33825-.61756-9.352-1.75865,1.74492-4.49733,4.48371-8.459,7.08548-12.44369,10.59-16.21885,19.89271-33.21531,30.20514-49.60139a54.23683,54.23683,0,0,1,14.66455-15.59034c10.42277-7.37682,20.9238-14.65083,31.56-21.71548a111.91376,111.91376,0,0,1,19.69722-10.00492c3.8436,11.71094,3.44133,23.61153,2.7256,35.781a578.61339,578.61339,0,0,0-.01817,60.9899C1308.56559,509.16077,1309.74206,512.68852,1305.964,514.93332Z"/><path class="cls-24" d="M1304.78955,837.79267q-.01539,1.15527-.03122,2.31061c-7.94849.1123-15.89684.33909-23.84461.31528-23.26678-.06981-46.53341-.23939-69.80093-.36992a18.35215,18.35215,0,0,1,4.124-5.77621c4.71-4.112,7.781-9.45849,11.05673-14.67043,4.10958-6.53826,8.51768-12.87031,13.00022-19.17152,7.31821-10.28764,14.27664-20.86521,19.877-32.24328,6.31832-8.454,12.232-17.16257,16.44933-26.89326,4.53911-10.47318,11.0919-19.79593,16.80455-29.59724,4.001-6.86438,8.17256-13.62936,12.267-20.43968.43539,5.53125-.68832,11.17649,1.20666,16.60709a2.45209,2.45209,0,0,1,.05452,1.18882c-1.59677,8.8803,1.19229,17.79034-.05217,26.62039-.97717,6.933-1.79094,13.91856-.9949,20.79547,2.16477,18.698.47993,37.42621,1.0903,56.126q-.00264,1.79685-.00572,3.59356C1307.685,823.50616,1306.19477,830.64707,1304.78955,837.79267Z"/><path class="cls-25" d="M1305.964,514.93332a8.347,8.347,0,0,0,1.123-5.1703c-2.13238-15.871-.56229-31.8205-1.01746-47.72685-.11973-4.18252.21161-8.38537-.05335-12.55415-.26949-4.239,1.07638-8.25121,1.159-12.45255a243.70385,243.70385,0,0,0-1.47235-27.97521,1.15008,1.15008,0,0,1,1.49052-.743c.02007,1.59845-.007,3.19943.07737,4.79447.05686,1.07169.57182,2.17206,1.75225,1.97717,5.51217-.9102,8.86119,2.98381,12.54417,5.76555,4.29775,3.24577,8.47665,6.55464,13.57483,8.49291,6.36947,2.42155,11.83577,6.53122,17.73453,9.81581,5.34438,2.97568,8.05782,8.78533,11.26659,13.73905,3.76271,5.809,8.35575,11.04463,11.20006,17.56154a47.78962,47.78962,0,0,0,8.60546,12.86108c3.47372,3.81526,5.31844,8.81792,7.69248,13.39293,1.67194,3.222,3.39371,6.32846,6.22687,8.68523a15.60759,15.60759,0,0,1,4.329,6.38417c1.07154,2.64611.55526,4.04261-2.09019,4.20629-4.372.27052-8.56325,1.60321-13.03671,1.43748-14.35811-.53193-28.65952,2.07826-43.03214,1.08389-6.52407-.45143-13.02206-1.296-19.52562-2.01812-4.14153-.45988-8.25976-1.16945-12.40993-1.498-4.2765-.33858-4.83792.23243-4.89463,4.54787-.08427,6.39541-.02711,12.79273-.02858,19.18925q-.00836,37.77942-.04909,75.55873c-.00469,2.11415.743,4.43861-1.05909,6.28268q-.03076-48.34317-.06448-96.68607C1306.00426,520.90119,1305.97862,517.91727,1305.964,514.93332Z"/><path class="cls-26" d="M1457.1321,972.45409c-2.12389,1.68782-4.62528.9161-6.93909.91823q-77.9121.071-155.824.027c-2.59694-.00014-5.19505-.01743-7.79067.04813-2.07509.05238-3.87877-.4861-4.40121,3.06754-.4093,2.78346-3.21712,5.32812-5.48828,7.59471-14.70382,14.67468-29.49161,29.26811-43.98323,44.14973-3.14121,3.22569-7.62932,3.35681-10.75807,6.1739-10.79207.61466-21.5859-.15383-32.37475.06952-3.7079.07669-3.57689-2.1477-3.56956-4.71031q.05956-20.69478.01084-41.39c-.00469-3.99888.03239-8.00295-.161-11.9945-.13409-2.764.72408-4.02056,3.69471-3.95822,5.19607.109,10.3983-.14152,15.598-.13713q114.00281.09725,228.0056.22C1441.145,972.53994,1449.13846,972.48178,1457.1321,972.45409Z"/><path class="cls-27" d="M1336.944,949.19323c-1.94247-1.55934-4.2343-.81641-6.35643-.84446-7.77923-.10292-15.56081-.0408-24.63889-.0408,5.90082-4.15183,10.55233-8.00786,15.25952-11.7661a171.68626,171.68626,0,0,0,49.11746-61.74046,13.246,13.246,0,0,0,1.74243-5.66926c4.95955-.89427,9.96995-.53811,14.95588-.51233,10.99152.05692,21.98245.26781,32.97353.41586,1.51734,1.84311.24986,3.42391-.63454,4.87146-10.46791,17.1348-18.54918,35.49058-27.46913,53.41783-1.02348,2.05716-1.66755,4.57713-4.43506,5.21128a30.04235,30.04235,0,0,0-4.19649,7.8678c-.86755,2.11584-.54808,3.77919,2.36554,4.21388,9.28866,1.38594,18.51958,1.05191,27.88913.63063,7.349-.33044,14.90679-2.2203,22.35292.28774,1.9876.66953,4.35461.22781,6.54811.268,1.97075.03611,3.98575-.08212,5.31448,1.96464-2.00005.844-3.99308.40677-5.92792.41044-22.76384.04307-45.52753.01567-68.29122.07786-2.10908.00579-4.43257-.75186-6.27567,1.04869C1357.13731,949.97132,1347.04089,949.52858,1336.944,949.19323Z"/><path class="cls-5" d="M1439.26743,840.10929c2.49714-2.39163,5.84366-.176,8.51607-1.55384.239-.929-.42982-1.44374-.85407-2.10023-2.33257-3.6102-2.3185-4.30654.33925-7.25431,1.33577-1.48154,2.9765-2.7097,4.18931-4.27672,4.04862-5.23033,9.375-4.80722,14.61706-2.99517a52.11631,52.11631,0,0,0,25.2494,1.97029,84.438,84.438,0,0,1,20.85845-.04139c6.23274.62367,12.27585,3.07244,18.81105.98774,3.52062-1.123,7.08022.89793,10.0888,2.85071a10.30229,10.30229,0,0,0,6.16782,1.714c3.39459-.073,6.79723-.14116,10.18669.00967a20.27292,20.27292,0,0,0,13.44719-4.25643c5.81406-4.51106,13.16494-6.73656,18.05532-12.61188,1.60981-1.9338,3.99836-1.529,5.87722.208,5.43655,5.02639,9.70954,11.05679,14.167,16.89358,2.02,2.64516.2799,5.29062-3.30344,5.71094a209.46282,209.46282,0,0,0-23.47209,3.62565c2.87523,0,5.75324-.07655,8.62466.02689,1.92136.06907,4.04686-.66294,5.647,1.11227-3.19368.06754-6.387.19243-9.58043.194q-71.42766.03582-142.85547.03209C1442.452,840.3552,1440.85965,840.19492,1439.26743,840.10929Z"/><path class="cls-28" d="M1387.45881,932.53625c4.61648-8.78954,9.10635-17.62552,13.1009-26.73634,5.02535-11.463,11.55968-22.1694,17.79813-33.00878.69214-1.20266,1.63208-2.26629,1.64-3.75538,1.38178-.14841,2.76254-.41439,4.14593-.42816,62.56318-.62353,125.12782-.60888,187.69291-.37645,1.77936.00659,3.60942-.26539,5.31228.55526-2.38664.10578-4.77285.30349-7.159.30393q-64.07736.01208-128.15473-.013c-4.30449-.00015-7.8169.43769-11.756,3.78373a288.855,288.855,0,0,1-25.45148,18.74116c-14.33658,9.68858-28.30107,19.90142-41.13995,31.59375-4.24191,3.86306-9.19223,6.9454-13.78571,10.42806C1388.11621,934.82629,1387.70442,933.93092,1387.45881,932.53625Z"/><path class="cls-29" d="M339.77677,626.59942c1.85245,7.5942,3.17216,15.2092,1.51495,23.05136-.44949,2.127-1.83512,4.76847,1.81658,5.67556,1.06312,2.13576-.29972,3.83559-1.04765,5.62289-12.32963,29.46172-27.42982,57.61639-40.89851,86.54139-1.24366,2.67087-2.18222,5.63864-4.93431,7.33554a4.78284,4.78284,0,0,0-2.31645,2.49558c-1.16093.98562-2.19071,2.46643-3.98656,1.05558,7.17785-24.94407,16.65541-49.05936,26.61272-72.98251,7.73087-18.574,14.4552-37.52649,21.78828-56.248A19.723,19.723,0,0,1,339.77677,626.59942Z"/><path class="cls-9" d="M1015.67618,1035.75271c-.12778-1.58058-.36717-3.16108-.36717-4.74166q.00243-65.56345.06141-131.1269c.0085-7.98222.17541-15.96415.2555-23.94644.01216-1.20581-.02777-2.40614.93731-3.33469.756,8.16836-.21242,16.32272-.19975,24.48646q.0864,55.62387.02909,111.24805C1016.38,1017.4778,1016.91933,1026.6413,1015.67618,1035.75271Z"/><path class="cls-13" d="M1702.4704,973.193c-7.79462.10695-15.58881.28159-23.38372.30759q-29.6997.09912-59.39985.07728c-2.19115.00022-4.3823-.19749-6.57316-.30356,8.30988-1.17036,16.67163-.64345,25.00906-.68667,19.7217-.10211,39.44427-.05,59.1664-.03933C1699.03346,972.54925,1700.87686,971.91935,1702.4704,973.193Z"/><path class="cls-11" d="M1176.3133,1056.20836c1.5506,1.852,3.6846,1.12025,5.60039,1.19863a62.07465,62.07465,0,0,1,7.56513.43842c-5.59013,2.94433-11.50912,2.08983-17.3486,1.51385a3.17564,3.17564,0,0,1-2.99481-3.21844A21.05227,21.05227,0,0,1,1176.3133,1056.20836Z"/><path class="cls-22" d="M783.482,1298.80336q18.25232-.01077,36.504-.02125c-3.39847,1.52366-7.041,1.08473-10.57306,1.12443-7.74787.08747-15.4989-.11515-23.24868-.19661C785.1689,1299.69953,784.172,1299.70979,783.482,1298.80336Z"/><path class="cls-30" d="M289.92482,758.37732q1.99375-.52731,3.987-1.05506c-3.00851,5.72581-5.22744,11.9115-9.75753,16.75124Q287.03983,766.22493,289.92482,758.37732Z"/><path class="cls-8" d="M999.73757,848.50268c1.48869,1.85981,3.58818,1.25907,5.48243,1.28112,7.46453.087,14.92993.09427,22.39432.13141-3.1281,1.67105-6.54972,1.03236-9.84019,1.11733-5.506.14218-11.02083.016-16.53-.09362C999.7482,850.90918,998.23079,850.551,999.73757,848.50268Z"/><path class="cls-5" d="M1345.6301,840.10138c4.61018-1.57465,25.31227-1.58007,29.94912-.00784Q1360.6043,840.0975,1345.6301,840.10138Z"/><path class="cls-8" d="M1067.13009,840.12643c4.50665-1.58556,25.24706-1.61068,29.915-.03626C1087.07351,840.43365,1077.10217,840.56434,1067.13009,840.12643Z"/><path class="cls-11" d="M1045.59592,1299.67609c.93724-.92826,2.143-.89295,3.32242-.89456q10.95312-.01626,21.90632-.00557c1.17867.00088,2.38628-.05479,3.314.89266C1064.623,1300.08968,1055.10953,1300.11224,1045.59592,1299.67609Z"/><path class="cls-8" d="M1045.52441,840.11947a13.76829,13.76829,0,0,1,11.89886-.01113A54.01517,54.01517,0,0,1,1045.52441,840.11947Z"/><path class="cls-8" d="M1033.46772,843.607c.37648-3.21763,2.49795-3.659,5.16032-3.24093Q1036.04869,841.987,1033.46772,843.607Z"/><path class="cls-15" d="M486.81865,671.11c1.9337.62814,1.57533,2.21619,1.53766,3.66982C487.39688,673.74365,487.21029,672.38386,486.81865,671.11Z"/><path class="cls-13" d="M1595.55748,973.2327q-1.76052.09779-3.5209.19514C1593.12307,971.78229,1594.35317,972.73934,1595.55748,973.2327Z"/><path class="cls-30" d="M296.22783,754.82616c3.03181-6.928,6.42193-13.68854,9.642-20.52282,5.53375-11.74478,11.57235-23.23742,17.05452-34.99956,6.81372-14.61915,13.46419-29.31434,20.1846-43.97707,11.189-19.38389,20.04083-39.94062,29.93531-59.97052,5.10594-10.33613,8.82238-21.34912,14.62244-31.383.6891-1.19208,1.05473-2.61593,2.33265-3.40882.16057,1.03452.25927,1.95706,1.78111,1.21823,5.62905-2.73269,5.56691-2.65252,8.91167,2.74025a21.13344,21.13344,0,0,1,2.7133,6.55005A53.77414,53.77414,0,0,0,410.053,586.95a35.82245,35.82245,0,0,1,5.267,19.81981c-.26543,23.78147-.53178,47.579.09122,71.34706.27613,10.5353,1.782,21.15125.80516,31.61975-1.47066,15.76116-.17047,31.52745-1.1646,47.22987-.8508,13.43875-2.51479,26.83883-6.28124,39.9119a177.02814,177.02814,0,0,0-4.28958,20.97735c-1.17577,7.32646-2.89739,14.03643-11.11337,16.51582-1.38933,2.08661-1.31642,5.25611-4.472,6.03457-2.31762-1.5775-3.46148.209-3.98875,1.81894-3.489,10.65324-10.12012,19.993-13.36406,30.62022-2.96657,9.71853-7.38866,18.86987-10.13156,28.60393a47.34791,47.34791,0,0,1-10.65746,19.13548,212.57021,212.57021,0,0,1-16.16338,16.05337c-2.20947,1.97-4.61722,3.77706-6.72455,5.89319-12.10611,12.15661-25.40455,23.00683-37.96155,34.65074-11.12341,10.31459-23.66732,18.82855-34.712,29.24665-8.95427,8.4465-18.79937,16.02824-27.65126,24.60073-8.85368,8.57433-16.58987,18.252-24.57326,27.67348-7.46508,8.80983-14.66223,17.8203-21.812,26.87369-8.03809,10.17835-14.44769,21.475-21.77141,32.14593-3.71439,5.41192-7.09474,11.10983-11.29753,16.11505-4.82167,5.74214-8.22624,12.20012-11.57613,18.77471-1.05641,2.07335-1.79183,4.3918-3.43252,6.00007-1.00668-.30634-1.21834-.92064-1.01672-1.43151,5.19421-13.15936,9.85429-26.53446,15.04284-39.67522,8.84508-22.40161,18.8125-44.3607,28.33146-66.49574,8.01477-18.63729,16.135-37.22726,24.01817-55.92352,5.88171-13.94962,11.77829-27.91784,17.9976-41.73861,4.985-11.07774,9.42462-22.41,13.83068-33.73639,4.5579-11.71673,10.1226-22.98317,15.00744-34.549,5.48908-12.99631,11.75715-25.61338,15.85168-39.26237a211.7478,211.7478,0,0,1,11.59129-29.989,158.16632,158.16632,0,0,0,8.36473-22.39567c2.0435-6.78791,5.91458-12.60279,9.43278-18.62528,3.14839-5.38943,4.16754-11.54,5.93232-17.417A2.44132,2.44132,0,0,0,296.22783,754.82616Z"/><path class="cls-31" d="M341.29758,1079.02787c6.76456,0,13.58919-.573,20.28025.128,11.34708,1.18889,22.69808,1.134,34.04831,1.10787,10.73942-.02476,21.48265-.13229,32.22864-.4494,12.4029-.3659,24.79664-1.64329,37.30942-.2298a46.37163,46.37163,0,0,0,14.739-1.10392c5.72514-1.2705,6.819-.8649,8.88844,4.84216,4.67471,12.89148,10.38032,25.38139,14.61,38.45425a142.24261,142.24261,0,0,0,7.49145,17.58911c3.55641,7.40125,5.77237,15.25382,8.36161,22.98617a6.39816,6.39816,0,0,1,.31878,1.75411c.03172.79187.00194,1.71119-.94878,1.92817a2.08891,2.08891,0,0,1-1.606-.40626,63.40416,63.40416,0,0,0-10.47872-6.88167c-9.00748-5.17437-18.34761-9.64484-27.80153-13.94405-17.44848-7.935-35.54062-14.16777-53.59627-20.45638-11.26387-3.92321-22.56372-7.75653-33.76231-11.85921a466.56142,466.56142,0,0,1-58.98644-26.28393c-1.049-.55885-1.965-1.36236-2.968-2.01329-1.12592-.73069-2.74495-1.12421-2.148-3.0238.58981-1.87681,2.10034-2.15693,3.82287-2.13466,3.39854.04395,6.79811.013,10.19724.013Z"/><path class="cls-31" d="M310.85255,1075.585c18.39238-.08944,36.78464-.23383,55.17709-.25624q50.99634-.06229,101.99282-.0022c1.19259.00044,2.38507.13266,3.57708.20343-1.62761,1.72158-3.7526,1.078-5.67382,1.07938q-74.68515.0535-149.3703.00293C314.63021,1076.61089,312.51427,1077.229,310.85255,1075.585Z"/><path class="cls-30" d="M394.72034,837.91866a4.88385,4.88385,0,0,1-1.3731-3.59195C395.11319,835.02415,394.84816,836.49763,394.72034,837.91866Z"/><path class="cls-32" d="M650.42437,208.98146c5.26525,4.22385,11.03058,7.96633,15.67476,12.788,6.454,6.70063,14.607,11.04734,21.5253,17.04348,4.20719,3.6464,8.58649,7.0839,12.774,10.77051,4.24734,3.73927,4.69679,7.937,3.6997,12.92117-2.23446,11.17015-6.20248,21.77116-10.003,32.47285-5.32276,14.98817-9.87264,30.25011-14.78508,45.38459q-9.03553,27.83771-18.13328,55.65523c-2.78767,8.50605-6.93081,16.52142-8.941,25.32711-1.00457,4.40078-.90946,9.04344-2.8857,13.22592-2.13129-14.08968-1.347-28.2829-1.081-42.4166.15314-8.13338,1.43959-16.26862,1.00765-24.44024-2.63775-49.906-.42249-99.84792-1.18211-149.7669C648.04542,214.71639,647.94665,211.5294,650.42437,208.98146Z"/><path class="cls-33" d="M648.07913,123.66014c.00842,13.7333.80175,27.52416-.20011,41.1834-.96178,13.11405-.6607,26.1889-.99754,39.27856-8.02836-8.05734-17.4706-14.34926-26.44763-21.2269-7.9164-6.06512-8.52032-9.12341-4.23576-18.24909,5.27924-11.24443,12.44438-21.25661,20.16294-30.89255C639.61611,129.68991,643.90506,126.7156,648.07913,123.66014Z"/><path class="cls-17" d="M794.5745,1200.261c-.04228,1.33027.23418,2.77789-1.31034,3.55555C793.44163,1202.53589,793.26695,1201.12518,794.5745,1200.261Z"/><path class="cls-34" d="M1430.52319,1220.75593a18.901,18.901,0,0,1-1.26205,7.04019c-1.19318,3.103-3.706,3.54148-5.99724,1.19343a7.09572,7.09572,0,0,1-1.04854-1.44322c-4.27254-7.49949-6.13411-15.5094-4.81915-24.10211.42513-2.77789,1.21515-6.12232,4.39432-6.37607,2.67842-.2139,4.31328,2.6393,5.42908,4.98573C1430.03124,1207.96642,1429.73009,1214.46585,1430.52319,1220.75593Z"/><path class="cls-35" d="M576.6969,616.85722c-.57622,3.31228-2.47714,4.77338-4.42393,6.13054a2.00072,2.00072,0,0,1-3.09563-.50017,2.05084,2.05084,0,0,1,.98838-2.99671C572.0226,618.46124,573.81822,617.2084,576.6969,616.85722Z"/><path class="cls-12" d="M1349.513,1123.72678v-81.96719c.98859-.11478,1.6416.31059,1.6627.8219.20561,4.95673,1.7502,9.732,1.67693,14.75152-.16589,11.36687.40681,22.762-.19242,34.09965-.51393,9.72586-1.26322,19.42725-1.08971,29.176C1351.5907,1121.75349,1351.63217,1123.059,1349.513,1123.72678Z"/><path class="cls-8" d="M1017.61814,846.291a30.98111,30.98111,0,0,1-4.16747-.25668c-2.38035-.55789-3.58349-2.72346-2.06315-4.40843,5.00439-5.54641,7.3034-12.688,11.49447-18.6904a8.24162,8.24162,0,0,1,4.68221-3.38c4.08013-1.19981,4.04613-1.31547,4.70859,3.03985.41523,2.72992-1.92327,9.13515-3.02207,12.27762-1.13426,3.24415-3.97,4.912-5.39083,7.71741C1022.29133,845.68742,1019.73155,846.71465,1017.61814,846.291Z"/><path class="cls-8" d="M1184.75609,769.41931a74.41926,74.41926,0,0,1-7.68464,19.85439,3.34,3.34,0,0,1-4.15508,1.51135,91.69492,91.69492,0,0,0-14.92195-3.76425c-1.19589-.16906-1.88825-1.28317-2.7588-2.64684,5.77947-1.54835,11.40316-2.11445,16.36264-5.26864C1176.16719,776.19952,1179.715,771.91789,1184.75609,769.41931Z"/><path class="cls-5" d="M1304.78955,837.79267c-.74387-7.265,1.04194-14.38951,1.20079-21.60433,2.13737,5.52708,3.91922,11.08067.61051,16.7881C1305.7207,834.495,1306.54751,836.62626,1304.78955,837.79267Z"/><path class="cls-5" d="M1417.5218,814.5956c-2.1066,1.14714-3.47123,3.62881-5.73141,1.52095a2.89332,2.89332,0,0,1,.71851-4.60768C1415.21033,810.08184,1415.7291,813.07971,1417.5218,814.5956Z"/><path class="cls-17" d="M831.825,1235.05387c-1.20065-3.90028,1.29107-6.819,3.74183-9.76359,1.522-1.82883,3.07028-3.64125,4.48884-5.54846.891-1.198,1.95361-2.27612,3.40888-1.86531a3.9043,3.9043,0,0,1,2.67607,3.62543c.384,3.47306-.83692,6.68359-1.816,9.88093-1.13661,3.71217-3.71465,6.52215-6.554,9.107-1.42868,1.30067-2.99547,2.31-4.81769,1.40587-1.9199-.95229-1.928-2.79065-1.30243-4.67574A10.47275,10.47275,0,0,0,831.825,1235.05387Z"/><path class="cls-21" d="M1548.55673,838.99057c5.87356-4.73375,11.64307-4.70408,21.36565,0q-5.05033,0-10.10052.00007C1556.46039,838.99064,1553.09892,838.99057,1548.55673,838.99057Z"/></g></g></svg>