<?xml version="1.0" encoding="UTF-8"?> <!-- Generator: Adobe Illustrator 23.0.1, SVG Export Plug-In . SVG Version: 6.00 Build 0) --> <svg xmlns="http://www.w3.org/2000/svg" xmlns:xlink="http://www.w3.org/1999/xlink" id="Capa_1" x="0px" y="0px" viewBox="0 0 204 72.52" style="enable-background:new 0 0 204 72.52;" xml:space="preserve"> <style type="text/css"> .st0{fill:#7B903D;} .st1{fill:none;stroke:#C8C7C8;stroke-miterlimit:10;} .st2{fill:#6A7C24;} .st3{enable-background:new ;} .st4{clip-path:url(#SVGID_2_);enable-background:new ;} .st5{fill:#808D92;} .st6{clip-path:url(#SVGID_4_);enable-background:new ;} .st7{fill:#728227;} .st8{clip-path:url(#SVGID_6_);enable-background:new ;} .st9{fill:#6C7F25;} .st10{fill:#6F8026;} .st11{fill:#808629;} .st12{clip-path:url(#SVGID_8_);enable-background:new ;} .st13{fill:#54642A;} .st14{fill:#526229;} .st15{fill:#BEC739;} .st16{fill:#9DB634;} .st17{fill:#55662B;} .st18{fill:#788B3C;} .st19{fill:#86949A;} .st20{fill:#C2D6E0;} .st21{opacity:0.14;} .st22{fill:#FFFFFF;} .st23{fill:#6E6E6E;} .st24{fill:#B8B8B8;} .st25{fill:#E9E9E9;} .st26{fill:#838382;} .st27{fill:#222220;} .st28{fill:#C7D03A;} .st29{fill:#CBE2EC;} .st30{fill:#A3BF36;} .st31{clip-path:url(#SVGID_12_);} .st32{opacity:0.78;fill:#FFFFFF;} .st33{clip-path:url(#SVGID_14_);} .st34{opacity:0.4;fill:#838382;} .st35{opacity:0.4;fill:#B8B8B8;} .st36{opacity:0.4;fill:#6E6E6E;} .st37{clip-path:url(#SVGID_16_);} .st38{opacity:0.4;fill:#A3BF36;} .st39{opacity:0.4;fill:#C7D03A;} .st40{opacity:0.4;fill:#7B903D;} .st41{clip-path:url(#SVGID_18_);} .st42{fill:#3E3E3D;} .st43{clip-path:url(#SVGID_20_);} .st44{clip-path:url(#SVGID_22_);} .st45{fill:#D6D6D6;} .st46{fill:#AEAEAD;} .st47{clip-path:url(#SVGID_24_);} .st48{clip-path:url(#SVGID_26_);} .st49{clip-path:url(#SVGID_28_);} .st50{clip-path:url(#SVGID_30_);} .st51{clip-path:url(#SVGID_32_);} .st52{clip-path:url(#SVGID_34_);} .st53{fill:#E3EECC;} .st54{fill:#C7DB93;} </style> <g> <g> <path class="st42" d="M31.61,57.26h-1.72l-0.24,1.32h1.37l-0.06,0.32h-1.37l-0.34,1.89h-0.44l0.7-3.87h2.15L31.61,57.26z"></path> <path class="st42" d="M32.76,60.83c-0.18,0-0.34-0.02-0.48-0.07c-0.14-0.05-0.25-0.12-0.34-0.21c-0.09-0.09-0.16-0.2-0.21-0.33 c-0.05-0.13-0.07-0.27-0.07-0.44c0-0.15,0.02-0.29,0.05-0.43c0.03-0.14,0.08-0.27,0.15-0.4c0.06-0.13,0.14-0.24,0.24-0.35 c0.09-0.11,0.2-0.2,0.32-0.28c0.12-0.08,0.25-0.14,0.39-0.18c0.14-0.04,0.29-0.07,0.45-0.07c0.17,0,0.32,0.03,0.45,0.08 c0.13,0.05,0.24,0.12,0.33,0.22c0.09,0.09,0.15,0.2,0.2,0.33c0.04,0.13,0.07,0.27,0.07,0.43c0,0.14-0.02,0.27-0.05,0.41 c-0.03,0.14-0.08,0.27-0.14,0.39c-0.06,0.13-0.14,0.24-0.23,0.35c-0.09,0.11-0.19,0.2-0.31,0.28c-0.11,0.08-0.24,0.14-0.37,0.19 C33.06,60.8,32.91,60.83,32.76,60.83z M32.8,60.51c0.11,0,0.21-0.02,0.31-0.06c0.1-0.04,0.18-0.09,0.26-0.15s0.15-0.14,0.21-0.23 c0.06-0.09,0.12-0.18,0.16-0.28c0.04-0.1,0.08-0.2,0.1-0.31c0.02-0.11,0.03-0.21,0.03-0.32c0-0.1-0.01-0.2-0.04-0.3 c-0.03-0.1-0.07-0.18-0.13-0.25c-0.06-0.07-0.13-0.13-0.22-0.17s-0.19-0.06-0.31-0.06c-0.16,0-0.3,0.03-0.43,0.1 c-0.13,0.07-0.25,0.16-0.35,0.28c-0.1,0.12-0.17,0.26-0.23,0.43c-0.06,0.17-0.08,0.35-0.08,0.54c0,0.11,0.02,0.21,0.06,0.3 c0.04,0.09,0.09,0.18,0.15,0.24c0.06,0.07,0.14,0.12,0.23,0.16C32.61,60.49,32.7,60.51,32.8,60.51z"></path> <path class="st42" d="M35.17,58.47c0.01-0.06,0.02-0.12,0.03-0.19c0.01-0.07,0.01-0.12,0.02-0.16h0.39c0,0.08-0.01,0.16-0.02,0.25 c0.07-0.04,0.14-0.08,0.21-0.12c0.07-0.04,0.15-0.07,0.23-0.09c0.08-0.03,0.17-0.05,0.26-0.06c0.09-0.02,0.19-0.02,0.29-0.02 c0.24,0,0.42,0.06,0.54,0.17c0.12,0.11,0.18,0.27,0.18,0.47c0,0.03,0,0.06,0,0.1c0,0.03-0.01,0.07-0.01,0.1l-0.34,1.86h-0.41 l0.33-1.83c0-0.02,0.01-0.05,0.01-0.07s0-0.05,0-0.07c0-0.07-0.01-0.13-0.03-0.18s-0.05-0.1-0.09-0.13 c-0.04-0.03-0.08-0.06-0.13-0.08c-0.05-0.02-0.1-0.03-0.16-0.03c-0.1,0-0.19,0.01-0.27,0.02c-0.08,0.01-0.16,0.03-0.24,0.05 c-0.07,0.02-0.15,0.05-0.22,0.08c-0.07,0.03-0.14,0.06-0.21,0.1l-0.39,2.14h-0.41L35.17,58.47z"></path> <path class="st42" d="M39.27,58.08c0.16,0,0.29,0.02,0.4,0.05c0.11,0.03,0.21,0.08,0.3,0.14l0.24-1.35h0.41l-0.55,3.03 c-0.02,0.1-0.03,0.2-0.04,0.3c-0.01,0.1-0.02,0.19-0.02,0.28c0,0.05,0,0.1,0.01,0.15c0,0.04,0.01,0.08,0.02,0.12h-0.37 c-0.01-0.02-0.01-0.04-0.02-0.07c-0.01-0.03-0.01-0.06-0.02-0.09c-0.01-0.03-0.01-0.06-0.01-0.09c0-0.03-0.01-0.06-0.01-0.09 c-0.06,0.07-0.12,0.12-0.19,0.17c-0.06,0.05-0.13,0.09-0.2,0.12c-0.07,0.03-0.14,0.05-0.23,0.07c-0.08,0.01-0.17,0.02-0.27,0.02 c-0.14,0-0.27-0.03-0.39-0.08c-0.11-0.05-0.21-0.13-0.29-0.22c-0.08-0.09-0.14-0.21-0.18-0.33c-0.04-0.13-0.06-0.27-0.06-0.41 c0-0.13,0.01-0.26,0.04-0.39c0.03-0.13,0.07-0.26,0.12-0.39s0.12-0.24,0.2-0.36c0.08-0.11,0.17-0.21,0.28-0.29 c0.11-0.08,0.23-0.15,0.36-0.2C38.97,58.1,39.11,58.08,39.27,58.08z M38.86,60.5c0.06,0,0.13-0.01,0.19-0.02 c0.07-0.01,0.13-0.04,0.2-0.06c0.06-0.03,0.13-0.06,0.19-0.1c0.06-0.04,0.11-0.09,0.17-0.14l0.31-1.6 c-0.08-0.05-0.18-0.09-0.29-0.11c-0.11-0.02-0.23-0.04-0.35-0.04c-0.12,0-0.22,0.02-0.31,0.06c-0.09,0.04-0.18,0.09-0.25,0.15 c-0.07,0.06-0.14,0.14-0.19,0.22c-0.05,0.08-0.1,0.18-0.13,0.27c-0.04,0.1-0.06,0.2-0.08,0.3c-0.02,0.1-0.03,0.2-0.03,0.3 c0,0.1,0.01,0.19,0.03,0.29c0.02,0.09,0.06,0.18,0.11,0.25c0.05,0.07,0.11,0.13,0.18,0.18C38.67,60.48,38.76,60.5,38.86,60.5z"></path> <path class="st42" d="M42.01,60.83c-0.18,0-0.34-0.02-0.48-0.07c-0.14-0.05-0.25-0.12-0.34-0.21c-0.09-0.09-0.16-0.2-0.21-0.33 c-0.05-0.13-0.07-0.27-0.07-0.44c0-0.15,0.02-0.29,0.05-0.43c0.03-0.14,0.08-0.27,0.15-0.4s0.14-0.24,0.24-0.35 c0.09-0.11,0.2-0.2,0.32-0.28c0.12-0.08,0.25-0.14,0.39-0.18c0.14-0.04,0.29-0.07,0.45-0.07c0.17,0,0.32,0.03,0.45,0.08 c0.13,0.05,0.24,0.12,0.33,0.22c0.09,0.09,0.16,0.2,0.2,0.33c0.04,0.13,0.07,0.27,0.07,0.43c0,0.14-0.02,0.27-0.05,0.41 c-0.03,0.14-0.08,0.27-0.14,0.39c-0.06,0.13-0.14,0.24-0.23,0.35c-0.09,0.11-0.19,0.2-0.31,0.28c-0.11,0.08-0.24,0.14-0.37,0.19 C42.3,60.8,42.16,60.83,42.01,60.83z M42.05,60.51c0.11,0,0.21-0.02,0.31-0.06c0.1-0.04,0.18-0.09,0.26-0.15 c0.08-0.06,0.15-0.14,0.21-0.23c0.06-0.09,0.12-0.18,0.16-0.28s0.08-0.2,0.1-0.31c0.02-0.11,0.03-0.21,0.03-0.32 c0-0.1-0.01-0.2-0.04-0.3c-0.03-0.1-0.07-0.18-0.13-0.25c-0.06-0.07-0.13-0.13-0.22-0.17c-0.09-0.04-0.19-0.06-0.31-0.06 c-0.16,0-0.3,0.03-0.43,0.1c-0.13,0.07-0.25,0.16-0.35,0.28c-0.1,0.12-0.17,0.26-0.23,0.43c-0.06,0.17-0.08,0.35-0.08,0.54 c0,0.11,0.02,0.21,0.06,0.3c0.04,0.09,0.09,0.18,0.15,0.24c0.06,0.07,0.14,0.12,0.23,0.16C41.85,60.49,41.95,60.51,42.05,60.51z"></path> <path class="st42" d="M46.99,58.08c0.16,0,0.29,0.02,0.4,0.05s0.21,0.08,0.3,0.14l0.24-1.35h0.41l-0.55,3.03 c-0.02,0.1-0.03,0.2-0.04,0.3c-0.01,0.1-0.02,0.19-0.02,0.28c0,0.05,0,0.1,0.01,0.15c0,0.04,0.01,0.08,0.02,0.12h-0.37 c-0.01-0.02-0.01-0.04-0.02-0.07c-0.01-0.03-0.01-0.06-0.02-0.09c-0.01-0.03-0.01-0.06-0.01-0.09c0-0.03-0.01-0.06-0.01-0.09 c-0.06,0.07-0.12,0.12-0.19,0.17c-0.06,0.05-0.13,0.09-0.2,0.12c-0.07,0.03-0.14,0.05-0.23,0.07c-0.08,0.01-0.17,0.02-0.27,0.02 c-0.14,0-0.27-0.03-0.39-0.08c-0.11-0.05-0.21-0.13-0.29-0.22c-0.08-0.09-0.14-0.21-0.18-0.33c-0.04-0.13-0.06-0.27-0.06-0.41 c0-0.13,0.01-0.26,0.04-0.39c0.03-0.13,0.07-0.26,0.12-0.39c0.05-0.12,0.12-0.24,0.2-0.36c0.08-0.11,0.17-0.21,0.28-0.29 c0.11-0.08,0.23-0.15,0.36-0.2S46.84,58.08,46.99,58.08z M46.58,60.5c0.06,0,0.13-0.01,0.19-0.02c0.07-0.01,0.13-0.04,0.2-0.06 c0.06-0.03,0.13-0.06,0.19-0.1c0.06-0.04,0.11-0.09,0.17-0.14l0.31-1.6c-0.08-0.05-0.18-0.09-0.29-0.11 c-0.11-0.02-0.23-0.04-0.35-0.04c-0.12,0-0.22,0.02-0.31,0.06c-0.09,0.04-0.18,0.09-0.25,0.15c-0.07,0.06-0.14,0.14-0.19,0.22 c-0.05,0.08-0.1,0.18-0.13,0.27c-0.04,0.1-0.06,0.2-0.08,0.3C46,59.52,46,59.62,46,59.72c0,0.1,0.01,0.19,0.03,0.29 c0.02,0.09,0.06,0.18,0.11,0.25c0.05,0.07,0.11,0.13,0.18,0.18C46.39,60.48,46.48,60.5,46.58,60.5z"></path> <path class="st42" d="M50.69,60.48c-0.15,0.11-0.32,0.2-0.51,0.25c-0.19,0.06-0.4,0.09-0.63,0.09c-0.17,0-0.31-0.03-0.44-0.08 c-0.13-0.05-0.23-0.12-0.31-0.21c-0.08-0.09-0.15-0.2-0.19-0.33c-0.04-0.13-0.06-0.26-0.06-0.41c0-0.23,0.04-0.44,0.11-0.65 c0.07-0.21,0.17-0.39,0.3-0.55c0.13-0.16,0.28-0.29,0.47-0.38c0.18-0.09,0.38-0.14,0.6-0.14c0.27,0,0.47,0.05,0.62,0.16 c0.15,0.11,0.22,0.26,0.22,0.46c0,0.12-0.03,0.23-0.08,0.32c-0.05,0.09-0.12,0.17-0.22,0.23c-0.09,0.06-0.2,0.12-0.32,0.16 c-0.12,0.04-0.25,0.07-0.39,0.09s-0.28,0.04-0.43,0.05c-0.15,0.01-0.29,0.01-0.44,0.02c-0.01,0.02-0.01,0.04-0.01,0.06 c0,0.02,0,0.04,0,0.05c0,0.01,0,0.02,0,0.02c0,0.11,0.01,0.22,0.03,0.32c0.02,0.1,0.06,0.18,0.11,0.25s0.11,0.12,0.19,0.16 s0.17,0.06,0.27,0.06c0.09,0,0.18-0.01,0.26-0.02c0.09-0.02,0.17-0.04,0.25-0.07c0.08-0.03,0.16-0.06,0.23-0.1 c0.07-0.04,0.14-0.07,0.19-0.11L50.69,60.48z M49.03,59.33c0.1,0,0.21-0.01,0.32-0.01c0.11-0.01,0.22-0.02,0.32-0.03 c0.1-0.02,0.2-0.04,0.3-0.07c0.09-0.03,0.18-0.06,0.25-0.11c0.07-0.04,0.13-0.09,0.17-0.16c0.04-0.06,0.06-0.13,0.06-0.22 c0-0.11-0.04-0.2-0.12-0.26c-0.08-0.06-0.2-0.09-0.35-0.09c-0.13,0-0.25,0.03-0.36,0.09c-0.11,0.06-0.2,0.13-0.28,0.22 c-0.08,0.09-0.14,0.19-0.2,0.3C49.09,59.11,49.05,59.22,49.03,59.33z"></path> <path class="st42" d="M55.47,57.28h-1.72l-0.24,1.32h1.37l-0.06,0.32h-1.37l-0.28,1.55h1.79l-0.06,0.34h-2.23l0.7-3.87h2.15 L55.47,57.28z"></path> <path class="st42" d="M56.39,58.14c0,0.08,0,0.15-0.01,0.23c0.05-0.03,0.1-0.07,0.17-0.1c0.07-0.03,0.14-0.06,0.22-0.08 s0.16-0.04,0.25-0.06c0.09-0.02,0.18-0.02,0.27-0.02c0.15,0,0.27,0.02,0.37,0.07c0.1,0.05,0.17,0.12,0.22,0.21 c0.16-0.09,0.33-0.16,0.49-0.21c0.16-0.05,0.33-0.07,0.5-0.07c0.12,0,0.22,0.02,0.31,0.05s0.16,0.07,0.21,0.13 c0.05,0.05,0.09,0.12,0.12,0.19c0.03,0.08,0.04,0.16,0.04,0.25c0,0.03,0,0.07,0,0.1c0,0.03-0.01,0.07-0.01,0.1l-0.34,1.89h-0.41 l0.33-1.86c0-0.03,0.01-0.05,0.01-0.07c0-0.02,0.01-0.05,0.01-0.07c0-0.13-0.03-0.23-0.1-0.3c-0.06-0.06-0.17-0.09-0.31-0.09 c-0.08,0-0.14,0-0.21,0.01c-0.06,0.01-0.13,0.02-0.19,0.03c-0.06,0.01-0.12,0.03-0.19,0.06c-0.06,0.02-0.13,0.05-0.2,0.08 c0.01,0.03,0.01,0.07,0.01,0.12c0,0.03,0,0.07-0.01,0.1c0,0.03-0.01,0.07-0.02,0.11l-0.34,1.89h-0.41l0.33-1.85 c0.01-0.06,0.02-0.11,0.02-0.16c0-0.13-0.03-0.23-0.09-0.29c-0.06-0.06-0.17-0.09-0.32-0.09c-0.13,0-0.27,0.02-0.4,0.05 c-0.14,0.03-0.26,0.08-0.37,0.15l-0.4,2.19h-0.41l0.42-2.35c0.01-0.06,0.02-0.12,0.03-0.18S56,58.17,56,58.14H56.39z"></path> <path class="st42" d="M60.77,58.14c0,0.03,0,0.06,0,0.1s0,0.06,0,0.09c0.13-0.07,0.27-0.12,0.42-0.17 c0.15-0.04,0.31-0.06,0.48-0.06c0.16,0,0.29,0.02,0.4,0.07c0.11,0.05,0.2,0.12,0.28,0.2c0.07,0.09,0.12,0.19,0.16,0.31 c0.03,0.12,0.05,0.25,0.05,0.38c0,0.24-0.03,0.47-0.1,0.69c-0.07,0.22-0.16,0.41-0.28,0.57c-0.12,0.16-0.27,0.29-0.45,0.39 c-0.18,0.1-0.37,0.14-0.59,0.14c-0.08,0-0.14,0-0.21-0.01c-0.06-0.01-0.12-0.03-0.18-0.05c-0.06-0.02-0.11-0.05-0.17-0.08 c-0.06-0.03-0.12-0.07-0.18-0.11l-0.24,1.32h-0.41l0.61-3.39c0-0.01,0.01-0.03,0.01-0.07c0-0.03,0.01-0.07,0.02-0.11 c0-0.04,0.01-0.08,0.01-0.12c0-0.04,0-0.07,0-0.09H60.77z M61.52,58.43c-0.08,0-0.15,0-0.21,0.01c-0.06,0.01-0.12,0.02-0.18,0.03 s-0.12,0.03-0.18,0.06c-0.06,0.02-0.12,0.05-0.2,0.09l-0.3,1.67c0.06,0.05,0.11,0.09,0.17,0.12c0.06,0.03,0.11,0.05,0.17,0.07 c0.06,0.02,0.11,0.03,0.16,0.03c0.05,0.01,0.1,0.01,0.15,0.01c0.12,0,0.22-0.02,0.32-0.06c0.1-0.04,0.18-0.09,0.26-0.16 c0.08-0.07,0.14-0.15,0.2-0.24c0.06-0.09,0.1-0.19,0.14-0.29c0.04-0.1,0.07-0.21,0.08-0.32c0.02-0.11,0.03-0.22,0.03-0.32 c0-0.1-0.01-0.2-0.03-0.28c-0.02-0.08-0.05-0.16-0.1-0.22c-0.05-0.06-0.11-0.11-0.19-0.14C61.74,58.45,61.64,58.43,61.52,58.43z"></path> <path class="st42" d="M63.69,56.94h0.41l-0.6,3.32c-0.01,0.03-0.01,0.07-0.01,0.1c0,0.07,0.02,0.11,0.06,0.13 c0.04,0.02,0.1,0.03,0.18,0.03c0.01,0,0.03,0,0.06,0c0.03,0,0.05,0,0.08-0.01l0.02,0.23c-0.03,0.01-0.07,0.03-0.11,0.04 c-0.04,0.01-0.08,0.02-0.12,0.04c-0.04,0.01-0.09,0.02-0.13,0.03c-0.04,0.01-0.08,0.01-0.12,0.01c-0.04,0-0.09-0.01-0.13-0.02 c-0.04-0.01-0.08-0.03-0.11-0.06c-0.03-0.03-0.06-0.06-0.08-0.11c-0.02-0.04-0.03-0.1-0.03-0.17c0-0.04,0.01-0.09,0.02-0.15 L63.69,56.94z"></path> <path class="st42" d="M66.49,60.51c-0.15,0.11-0.32,0.2-0.51,0.25c-0.19,0.06-0.4,0.09-0.63,0.09c-0.17,0-0.31-0.03-0.44-0.08 c-0.13-0.05-0.23-0.12-0.31-0.21c-0.08-0.09-0.15-0.2-0.19-0.33c-0.04-0.13-0.06-0.26-0.06-0.41c0-0.23,0.04-0.44,0.11-0.65 c0.07-0.21,0.17-0.39,0.3-0.55c0.13-0.16,0.28-0.29,0.47-0.38c0.18-0.09,0.38-0.14,0.6-0.14c0.27,0,0.47,0.05,0.62,0.16 c0.15,0.11,0.22,0.26,0.22,0.46c0,0.12-0.03,0.23-0.08,0.32s-0.12,0.17-0.22,0.23c-0.09,0.06-0.2,0.12-0.32,0.16 c-0.12,0.04-0.25,0.07-0.39,0.09c-0.14,0.02-0.28,0.04-0.43,0.05c-0.15,0.01-0.29,0.01-0.44,0.02c-0.01,0.02-0.01,0.04-0.01,0.06 c0,0.02,0,0.04,0,0.05c0,0.01,0,0.02,0,0.02c0,0.11,0.01,0.22,0.03,0.32c0.02,0.1,0.06,0.18,0.11,0.25 c0.05,0.07,0.11,0.12,0.19,0.16c0.08,0.04,0.17,0.06,0.27,0.06c0.09,0,0.18-0.01,0.26-0.02c0.09-0.02,0.17-0.04,0.25-0.07 c0.08-0.03,0.15-0.06,0.23-0.1c0.07-0.04,0.14-0.07,0.19-0.11L66.49,60.51z M64.83,59.35c0.1,0,0.21-0.01,0.32-0.01 c0.11-0.01,0.22-0.02,0.32-0.03c0.1-0.02,0.2-0.04,0.3-0.07c0.09-0.03,0.18-0.06,0.25-0.11c0.07-0.04,0.13-0.09,0.17-0.16 c0.04-0.06,0.06-0.13,0.06-0.22c0-0.11-0.04-0.2-0.12-0.26c-0.08-0.06-0.2-0.09-0.35-0.09c-0.13,0-0.25,0.03-0.36,0.09 c-0.11,0.06-0.2,0.13-0.28,0.22c-0.08,0.09-0.14,0.19-0.2,0.3C64.89,59.13,64.85,59.24,64.83,59.35z"></path> <path class="st42" d="M68.89,60.81c0-0.03,0-0.06,0-0.09c0-0.03,0-0.06,0-0.09c0-0.04,0-0.09,0.01-0.14c0-0.05,0.01-0.1,0.02-0.15 c-0.06,0.1-0.12,0.19-0.19,0.25c-0.07,0.06-0.14,0.12-0.21,0.16c-0.08,0.04-0.16,0.07-0.24,0.08s-0.17,0.02-0.26,0.02 c-0.12,0-0.24-0.02-0.35-0.06c-0.11-0.04-0.21-0.11-0.29-0.19c-0.08-0.09-0.15-0.19-0.2-0.32c-0.05-0.13-0.08-0.28-0.08-0.46 c0-0.23,0.03-0.44,0.11-0.65c0.07-0.21,0.18-0.39,0.33-0.54c0.15-0.16,0.33-0.28,0.56-0.38c0.23-0.09,0.5-0.14,0.81-0.14 c0.04,0,0.1,0,0.17,0.01c0.07,0.01,0.14,0.01,0.22,0.02c0.08,0.01,0.15,0.02,0.22,0.03c0.07,0.01,0.12,0.02,0.16,0.03l-0.3,1.59 c-0.01,0.06-0.02,0.12-0.03,0.2c-0.01,0.07-0.02,0.14-0.03,0.21c-0.01,0.07-0.01,0.14-0.02,0.21c0,0.07-0.01,0.13-0.01,0.19 c0,0.04,0,0.08,0.01,0.11c0,0.03,0.01,0.06,0.01,0.09H68.89z M69.19,58.47c-0.06-0.03-0.12-0.05-0.2-0.07 c-0.08-0.02-0.16-0.03-0.27-0.03c-0.14,0-0.29,0.03-0.43,0.09s-0.27,0.14-0.39,0.26c-0.11,0.11-0.21,0.26-0.28,0.43 c-0.07,0.17-0.11,0.37-0.11,0.6c0,0.11,0.01,0.22,0.04,0.31c0.03,0.09,0.07,0.18,0.12,0.25c0.05,0.07,0.11,0.12,0.18,0.17 c0.07,0.04,0.15,0.06,0.23,0.06c0.11,0,0.21-0.02,0.31-0.06c0.09-0.04,0.18-0.1,0.26-0.17c0.08-0.07,0.14-0.16,0.19-0.25 c0.05-0.1,0.09-0.2,0.11-0.3L69.19,58.47z"></path> <path class="st42" d="M71.62,58.1c0.16,0,0.29,0.02,0.4,0.05c0.11,0.03,0.21,0.08,0.3,0.14l0.24-1.35h0.41l-0.55,3.03 c-0.02,0.1-0.03,0.2-0.04,0.3c-0.01,0.1-0.02,0.19-0.02,0.28c0,0.05,0,0.1,0.01,0.15c0,0.04,0.01,0.08,0.02,0.12h-0.37 C72.01,60.79,72,60.76,72,60.74c-0.01-0.03-0.01-0.06-0.02-0.09c-0.01-0.03-0.01-0.06-0.01-0.09c0-0.03-0.01-0.06-0.01-0.09 c-0.06,0.07-0.12,0.12-0.19,0.17c-0.06,0.05-0.13,0.09-0.2,0.12c-0.07,0.03-0.14,0.05-0.23,0.07c-0.08,0.01-0.17,0.02-0.27,0.02 c-0.14,0-0.27-0.03-0.39-0.08c-0.11-0.05-0.21-0.13-0.29-0.22c-0.08-0.09-0.14-0.21-0.18-0.33c-0.04-0.13-0.06-0.27-0.06-0.41 c0-0.13,0.01-0.26,0.04-0.39c0.03-0.13,0.07-0.26,0.12-0.39c0.05-0.12,0.12-0.24,0.2-0.36c0.08-0.11,0.17-0.21,0.28-0.29 c0.11-0.08,0.23-0.15,0.36-0.2C71.32,58.12,71.46,58.1,71.62,58.1z M71.21,60.52c0.06,0,0.13-0.01,0.19-0.02 c0.07-0.01,0.13-0.04,0.2-0.06c0.06-0.03,0.13-0.06,0.19-0.1c0.06-0.04,0.11-0.09,0.17-0.14l0.31-1.6 c-0.08-0.05-0.18-0.09-0.29-0.11c-0.11-0.02-0.23-0.04-0.35-0.04c-0.12,0-0.22,0.02-0.31,0.06c-0.09,0.04-0.18,0.09-0.25,0.15 s-0.14,0.14-0.19,0.22c-0.05,0.08-0.1,0.18-0.13,0.27c-0.04,0.1-0.06,0.2-0.08,0.3s-0.03,0.2-0.03,0.3c0,0.1,0.01,0.19,0.03,0.29 c0.02,0.09,0.06,0.18,0.11,0.25c0.05,0.07,0.11,0.13,0.18,0.18C71.02,60.5,71.11,60.52,71.21,60.52z"></path> <path class="st42" d="M74.36,60.85c-0.18,0-0.34-0.02-0.48-0.07s-0.25-0.12-0.34-0.21c-0.09-0.09-0.16-0.2-0.21-0.33 c-0.05-0.13-0.07-0.27-0.07-0.44c0-0.15,0.02-0.29,0.05-0.43c0.03-0.14,0.08-0.27,0.15-0.4s0.14-0.24,0.24-0.35 c0.09-0.11,0.2-0.2,0.32-0.28c0.12-0.08,0.25-0.14,0.39-0.18c0.14-0.04,0.29-0.07,0.45-0.07c0.17,0,0.32,0.03,0.45,0.08 c0.13,0.05,0.24,0.12,0.33,0.22c0.09,0.09,0.15,0.2,0.2,0.33c0.04,0.13,0.07,0.27,0.07,0.43c0,0.14-0.02,0.27-0.05,0.41 c-0.03,0.14-0.08,0.27-0.14,0.39c-0.06,0.13-0.14,0.24-0.23,0.35c-0.09,0.11-0.19,0.2-0.31,0.28c-0.11,0.08-0.24,0.14-0.37,0.19 C74.65,60.83,74.51,60.85,74.36,60.85z M74.4,60.54c0.11,0,0.21-0.02,0.31-0.06c0.1-0.04,0.18-0.09,0.26-0.15 c0.08-0.06,0.15-0.14,0.21-0.23c0.06-0.09,0.12-0.18,0.16-0.28c0.04-0.1,0.08-0.2,0.1-0.31c0.02-0.11,0.03-0.21,0.03-0.32 c0-0.1-0.01-0.2-0.04-0.3c-0.03-0.1-0.07-0.18-0.13-0.25c-0.06-0.07-0.13-0.13-0.22-0.17c-0.09-0.04-0.19-0.06-0.31-0.06 c-0.16,0-0.3,0.03-0.43,0.1c-0.13,0.07-0.25,0.16-0.35,0.28c-0.1,0.12-0.17,0.26-0.23,0.43c-0.06,0.17-0.08,0.35-0.08,0.54 c0,0.11,0.02,0.21,0.06,0.3c0.04,0.09,0.09,0.18,0.15,0.24c0.06,0.07,0.14,0.12,0.23,0.16C74.2,60.52,74.3,60.54,74.4,60.54z"></path> <path class="st42" d="M76.52,60.16c0.05,0.06,0.11,0.12,0.16,0.17c0.05,0.05,0.11,0.09,0.16,0.12c0.06,0.03,0.11,0.06,0.18,0.07 c0.06,0.02,0.13,0.02,0.21,0.02c0.09,0,0.17-0.01,0.25-0.03c0.08-0.02,0.15-0.05,0.22-0.09c0.06-0.04,0.11-0.09,0.15-0.14 c0.04-0.06,0.06-0.12,0.06-0.2c0-0.06-0.01-0.11-0.03-0.16c-0.02-0.04-0.05-0.08-0.08-0.11c-0.03-0.03-0.07-0.06-0.12-0.08 c-0.04-0.02-0.09-0.04-0.13-0.05c-0.01-0.01-0.04-0.01-0.07-0.03c-0.03-0.01-0.07-0.03-0.11-0.04c-0.04-0.01-0.08-0.03-0.11-0.04 c-0.04-0.01-0.06-0.02-0.07-0.03c-0.06-0.02-0.13-0.05-0.2-0.08c-0.07-0.03-0.14-0.07-0.2-0.12c-0.06-0.05-0.12-0.11-0.16-0.18 c-0.04-0.07-0.06-0.16-0.06-0.26c0-0.14,0.03-0.27,0.09-0.37c0.06-0.1,0.15-0.19,0.25-0.25c0.1-0.06,0.22-0.11,0.35-0.14 c0.13-0.03,0.26-0.05,0.39-0.05c0.18,0,0.34,0.02,0.48,0.07c0.14,0.05,0.26,0.13,0.37,0.24l-0.27,0.25 c-0.05-0.04-0.09-0.08-0.13-0.12s-0.09-0.06-0.14-0.08c-0.05-0.02-0.1-0.04-0.16-0.05c-0.06-0.01-0.12-0.02-0.2-0.02 c-0.07,0-0.15,0.01-0.22,0.02c-0.08,0.02-0.14,0.04-0.2,0.07c-0.06,0.03-0.11,0.08-0.15,0.13c-0.04,0.05-0.06,0.12-0.06,0.2 c0,0.05,0.01,0.1,0.04,0.14s0.06,0.07,0.1,0.1c0.04,0.03,0.09,0.06,0.14,0.08c0.05,0.02,0.1,0.04,0.16,0.06 c0.07,0.02,0.13,0.04,0.18,0.06c0.05,0.02,0.11,0.04,0.18,0.07c0.07,0.02,0.14,0.05,0.21,0.09c0.07,0.03,0.13,0.07,0.18,0.12 c0.05,0.05,0.1,0.11,0.13,0.18c0.03,0.07,0.05,0.16,0.05,0.26c0,0.15-0.03,0.27-0.1,0.38c-0.07,0.11-0.15,0.2-0.26,0.27 c-0.11,0.07-0.23,0.12-0.36,0.16c-0.13,0.03-0.27,0.05-0.4,0.05c-0.11,0-0.22-0.01-0.31-0.03c-0.09-0.02-0.18-0.05-0.25-0.08 c-0.08-0.04-0.15-0.08-0.21-0.14c-0.07-0.05-0.13-0.11-0.19-0.18L76.52,60.16z"></path> <path class="st42" d="M82.28,56.94h0.42l0.64,3.87h-0.48l-0.19-1.32h-1.36l-0.67,1.32H80.2L82.28,56.94z M81.45,59.19h1.18 l-0.26-1.77L81.45,59.19z"></path> <path class="st42" d="M84.65,58.14c0,0.08,0,0.15-0.01,0.23c0.05-0.03,0.1-0.07,0.17-0.1c0.07-0.03,0.14-0.06,0.22-0.08 c0.08-0.02,0.16-0.04,0.25-0.06c0.09-0.02,0.18-0.02,0.27-0.02c0.15,0,0.27,0.02,0.37,0.07c0.1,0.05,0.17,0.12,0.22,0.21 c0.16-0.09,0.33-0.16,0.49-0.21c0.16-0.05,0.33-0.07,0.5-0.07c0.12,0,0.22,0.02,0.31,0.05c0.09,0.03,0.16,0.07,0.21,0.13 c0.05,0.05,0.09,0.12,0.12,0.19c0.03,0.08,0.04,0.16,0.04,0.25c0,0.03,0,0.07,0,0.1c0,0.03-0.01,0.07-0.01,0.1l-0.34,1.89h-0.41 l0.33-1.86c0-0.03,0.01-0.05,0.01-0.07c0-0.02,0.01-0.05,0.01-0.07c0-0.13-0.03-0.23-0.1-0.3c-0.06-0.06-0.17-0.09-0.31-0.09 c-0.08,0-0.14,0-0.21,0.01c-0.06,0.01-0.13,0.02-0.19,0.03c-0.06,0.01-0.12,0.03-0.19,0.06c-0.06,0.02-0.13,0.05-0.2,0.08 c0.01,0.03,0.01,0.07,0.01,0.12c0,0.03,0,0.07-0.01,0.1c0,0.03-0.01,0.07-0.02,0.11l-0.34,1.89h-0.41l0.33-1.85 c0.01-0.06,0.02-0.11,0.02-0.16c0-0.13-0.03-0.23-0.09-0.29c-0.06-0.06-0.17-0.09-0.32-0.09c-0.13,0-0.27,0.02-0.4,0.05 c-0.14,0.03-0.26,0.08-0.37,0.15l-0.4,2.19h-0.41l0.42-2.35c0.01-0.06,0.02-0.12,0.03-0.18c0.01-0.06,0.01-0.1,0.01-0.14H84.65z"></path> <path class="st42" d="M89.04,58.14c0,0.03,0,0.06,0,0.1s0,0.06,0,0.09c0.13-0.07,0.27-0.12,0.42-0.17 c0.15-0.04,0.31-0.06,0.48-0.06c0.16,0,0.29,0.02,0.4,0.07c0.11,0.05,0.2,0.12,0.28,0.2c0.07,0.09,0.12,0.19,0.16,0.31 c0.03,0.12,0.05,0.25,0.05,0.38c0,0.24-0.03,0.47-0.1,0.69c-0.07,0.22-0.16,0.41-0.28,0.57c-0.12,0.16-0.27,0.29-0.45,0.39 c-0.18,0.1-0.37,0.14-0.59,0.14c-0.08,0-0.14,0-0.21-0.01c-0.06-0.01-0.12-0.03-0.18-0.05c-0.06-0.02-0.11-0.05-0.17-0.08 c-0.06-0.03-0.12-0.07-0.18-0.11l-0.24,1.32h-0.41l0.61-3.39c0-0.01,0.01-0.03,0.01-0.07c0-0.03,0.01-0.07,0.02-0.11 c0-0.04,0.01-0.08,0.01-0.12c0-0.04,0-0.07,0-0.09H89.04z M89.78,58.43c-0.08,0-0.15,0-0.21,0.01c-0.06,0.01-0.12,0.02-0.18,0.03 c-0.06,0.01-0.12,0.03-0.18,0.06c-0.06,0.02-0.12,0.05-0.2,0.09l-0.3,1.67c0.06,0.05,0.11,0.09,0.17,0.12 c0.06,0.03,0.11,0.05,0.17,0.07s0.11,0.03,0.16,0.03c0.05,0.01,0.1,0.01,0.15,0.01c0.12,0,0.22-0.02,0.32-0.06 c0.1-0.04,0.18-0.09,0.26-0.16c0.08-0.07,0.14-0.15,0.2-0.24c0.06-0.09,0.1-0.19,0.14-0.29c0.04-0.1,0.07-0.21,0.08-0.32 c0.02-0.11,0.03-0.22,0.03-0.32c0-0.1-0.01-0.2-0.03-0.28c-0.02-0.08-0.05-0.16-0.1-0.22c-0.05-0.06-0.11-0.11-0.19-0.14 C90,58.45,89.91,58.43,89.78,58.43z"></path> <path class="st42" d="M91.96,56.94h0.41l-0.6,3.32c-0.01,0.03-0.01,0.07-0.01,0.1c0,0.07,0.02,0.11,0.06,0.13 c0.04,0.02,0.1,0.03,0.18,0.03c0.01,0,0.03,0,0.06,0c0.03,0,0.05,0,0.08-0.01l0.02,0.23c-0.03,0.01-0.07,0.03-0.11,0.04 c-0.04,0.01-0.08,0.02-0.12,0.04c-0.04,0.01-0.09,0.02-0.13,0.03c-0.04,0.01-0.08,0.01-0.12,0.01c-0.04,0-0.09-0.01-0.13-0.02 c-0.04-0.01-0.08-0.03-0.11-0.06c-0.03-0.03-0.06-0.06-0.08-0.11c-0.02-0.04-0.03-0.1-0.03-0.17c0-0.04,0.01-0.09,0.02-0.15 L91.96,56.94z"></path> <path class="st42" d="M93.09,58.14h0.41l-0.48,2.67h-0.41L93.09,58.14z M93.49,57.04c0.06,0,0.11,0.02,0.15,0.06 c0.04,0.04,0.05,0.08,0.05,0.13c0,0.04-0.01,0.07-0.02,0.1c-0.01,0.03-0.03,0.06-0.06,0.09c-0.03,0.03-0.06,0.05-0.09,0.06 c-0.04,0.02-0.07,0.02-0.11,0.02c-0.06,0-0.11-0.02-0.15-0.06c-0.04-0.04-0.06-0.09-0.06-0.14c0-0.04,0.01-0.07,0.02-0.11 c0.02-0.03,0.04-0.06,0.06-0.09s0.06-0.04,0.09-0.06C93.42,57.05,93.45,57.04,93.49,57.04z"></path> <path class="st42" d="M95.09,60.85c-0.18,0-0.34-0.02-0.48-0.07s-0.25-0.12-0.34-0.21c-0.09-0.09-0.16-0.2-0.21-0.33 c-0.05-0.13-0.07-0.27-0.07-0.44c0-0.15,0.02-0.29,0.05-0.43c0.03-0.14,0.08-0.27,0.15-0.4s0.14-0.24,0.24-0.35 c0.09-0.11,0.2-0.2,0.32-0.28c0.12-0.08,0.25-0.14,0.39-0.18c0.14-0.04,0.29-0.07,0.45-0.07c0.17,0,0.32,0.03,0.45,0.08 c0.13,0.05,0.24,0.12,0.33,0.22c0.09,0.09,0.15,0.2,0.2,0.33c0.04,0.13,0.07,0.27,0.07,0.43c0,0.14-0.02,0.27-0.05,0.41 c-0.03,0.14-0.08,0.27-0.14,0.39c-0.06,0.13-0.14,0.24-0.23,0.35c-0.09,0.11-0.19,0.2-0.31,0.28c-0.11,0.08-0.24,0.14-0.37,0.19 C95.39,60.83,95.24,60.85,95.09,60.85z M95.13,60.54c0.11,0,0.21-0.02,0.31-0.06c0.1-0.04,0.18-0.09,0.26-0.15 c0.08-0.06,0.15-0.14,0.21-0.23c0.06-0.09,0.12-0.18,0.16-0.28s0.08-0.2,0.1-0.31c0.02-0.11,0.03-0.21,0.03-0.32 c0-0.1-0.01-0.2-0.04-0.3c-0.03-0.1-0.07-0.18-0.13-0.25c-0.06-0.07-0.13-0.13-0.22-0.17c-0.09-0.04-0.19-0.06-0.31-0.06 c-0.16,0-0.3,0.03-0.43,0.1c-0.13,0.07-0.25,0.16-0.35,0.28c-0.1,0.12-0.17,0.26-0.23,0.43c-0.06,0.17-0.08,0.35-0.08,0.54 c0,0.11,0.02,0.21,0.06,0.3c0.04,0.09,0.09,0.18,0.15,0.24c0.06,0.07,0.14,0.12,0.23,0.16C94.94,60.52,95.03,60.54,95.13,60.54z"></path> <path class="st42" d="M100.07,58.07c0.16,0,0.29,0.02,0.4,0.05s0.21,0.08,0.3,0.14l0.24-1.35h0.41l-0.55,3.03 c-0.02,0.1-0.03,0.2-0.04,0.3c-0.01,0.1-0.02,0.19-0.02,0.28c0,0.05,0,0.1,0.01,0.15c0,0.04,0.01,0.08,0.02,0.12h-0.37 c-0.01-0.02-0.01-0.04-0.02-0.07c-0.01-0.03-0.01-0.06-0.02-0.09c-0.01-0.03-0.01-0.06-0.01-0.09c0-0.03-0.01-0.06-0.01-0.09 c-0.06,0.07-0.12,0.12-0.19,0.17c-0.06,0.05-0.13,0.09-0.2,0.12c-0.07,0.03-0.14,0.05-0.23,0.07c-0.08,0.01-0.17,0.02-0.27,0.02 c-0.14,0-0.27-0.03-0.39-0.08c-0.11-0.05-0.21-0.13-0.29-0.22c-0.08-0.09-0.14-0.21-0.18-0.33c-0.04-0.13-0.06-0.27-0.06-0.41 c0-0.13,0.01-0.26,0.04-0.39c0.03-0.13,0.07-0.26,0.12-0.39c0.05-0.12,0.12-0.24,0.2-0.36c0.08-0.11,0.17-0.21,0.28-0.29 c0.11-0.08,0.23-0.15,0.36-0.2C99.77,58.09,99.92,58.07,100.07,58.07z M99.67,60.49c0.06,0,0.13-0.01,0.19-0.02 c0.07-0.01,0.13-0.04,0.2-0.06c0.06-0.03,0.13-0.06,0.19-0.1c0.06-0.04,0.11-0.09,0.17-0.14l0.31-1.6 c-0.08-0.05-0.18-0.09-0.29-0.11c-0.11-0.02-0.23-0.04-0.35-0.04c-0.12,0-0.22,0.02-0.31,0.06c-0.09,0.04-0.18,0.09-0.25,0.15 c-0.07,0.06-0.14,0.14-0.19,0.22c-0.05,0.08-0.1,0.18-0.13,0.27c-0.04,0.1-0.06,0.2-0.08,0.3s-0.03,0.2-0.03,0.3 c0,0.1,0.01,0.19,0.03,0.29c0.02,0.09,0.06,0.18,0.11,0.25c0.05,0.07,0.11,0.13,0.18,0.18C99.48,60.47,99.56,60.49,99.67,60.49z"></path> <path class="st42" d="M103.77,60.47c-0.15,0.11-0.32,0.2-0.51,0.25c-0.19,0.06-0.4,0.09-0.63,0.09c-0.17,0-0.31-0.03-0.44-0.08 c-0.13-0.05-0.23-0.12-0.31-0.21c-0.08-0.09-0.15-0.2-0.19-0.33c-0.04-0.13-0.06-0.26-0.06-0.41c0-0.23,0.04-0.44,0.11-0.65 c0.07-0.21,0.17-0.39,0.3-0.55c0.13-0.16,0.28-0.29,0.47-0.38c0.18-0.09,0.38-0.14,0.6-0.14c0.27,0,0.47,0.05,0.62,0.16 c0.15,0.11,0.22,0.26,0.22,0.46c0,0.12-0.03,0.23-0.08,0.32c-0.05,0.09-0.12,0.17-0.22,0.23c-0.09,0.06-0.2,0.12-0.32,0.16 c-0.12,0.04-0.25,0.07-0.39,0.09c-0.14,0.02-0.28,0.04-0.43,0.05c-0.15,0.01-0.29,0.01-0.44,0.02c-0.01,0.02-0.01,0.04-0.01,0.06 c0,0.02,0,0.04,0,0.05c0,0.01,0,0.02,0,0.02c0,0.11,0.01,0.22,0.03,0.32c0.02,0.1,0.06,0.18,0.11,0.25 c0.05,0.07,0.11,0.12,0.19,0.16s0.17,0.06,0.27,0.06c0.09,0,0.18-0.01,0.26-0.02c0.09-0.02,0.17-0.04,0.25-0.07 c0.08-0.03,0.16-0.06,0.23-0.1c0.07-0.04,0.14-0.07,0.19-0.11L103.77,60.47z M102.11,59.32c0.1,0,0.21-0.01,0.32-0.01 c0.11-0.01,0.22-0.02,0.32-0.03c0.1-0.02,0.2-0.04,0.3-0.07c0.09-0.03,0.18-0.06,0.25-0.11c0.07-0.04,0.13-0.09,0.17-0.16 c0.04-0.06,0.06-0.13,0.06-0.22c0-0.11-0.04-0.2-0.12-0.26c-0.08-0.06-0.2-0.09-0.35-0.09c-0.13,0-0.25,0.03-0.36,0.09 c-0.11,0.06-0.2,0.13-0.28,0.22c-0.08,0.09-0.14,0.19-0.2,0.3C102.17,59.1,102.13,59.21,102.11,59.32z"></path> <path class="st42" d="M106.43,56.89h0.41l-0.6,3.32c-0.01,0.03-0.01,0.07-0.01,0.1c0,0.07,0.02,0.11,0.06,0.13 c0.04,0.02,0.1,0.03,0.18,0.03c0.01,0,0.03,0,0.06,0c0.03,0,0.05,0,0.08-0.01l0.02,0.23c-0.03,0.01-0.07,0.03-0.11,0.04 c-0.04,0.01-0.08,0.02-0.12,0.04c-0.04,0.01-0.09,0.02-0.13,0.03c-0.04,0.01-0.08,0.01-0.12,0.01c-0.04,0-0.09-0.01-0.13-0.02 c-0.04-0.01-0.08-0.03-0.11-0.06c-0.03-0.03-0.06-0.06-0.08-0.11c-0.02-0.04-0.03-0.1-0.03-0.17c0-0.04,0.01-0.09,0.02-0.15 L106.43,56.89z"></path> <path class="st42" d="M108.93,60.76c0-0.03,0-0.06,0-0.09c0-0.03,0-0.06,0-0.09c0-0.04,0-0.09,0.01-0.14 c0-0.05,0.01-0.1,0.02-0.15c-0.06,0.1-0.12,0.19-0.19,0.25c-0.07,0.06-0.14,0.12-0.21,0.16c-0.08,0.04-0.16,0.07-0.24,0.08 c-0.08,0.02-0.17,0.02-0.26,0.02c-0.12,0-0.24-0.02-0.35-0.06c-0.11-0.04-0.21-0.11-0.29-0.19c-0.08-0.09-0.15-0.19-0.2-0.32 c-0.05-0.13-0.08-0.28-0.08-0.46c0-0.23,0.03-0.44,0.11-0.65c0.07-0.21,0.18-0.39,0.33-0.54c0.15-0.16,0.33-0.28,0.56-0.38 c0.23-0.09,0.5-0.14,0.81-0.14c0.04,0,0.1,0,0.17,0.01c0.07,0.01,0.14,0.01,0.22,0.02c0.08,0.01,0.15,0.02,0.22,0.03 c0.07,0.01,0.12,0.02,0.16,0.03l-0.3,1.59c-0.01,0.06-0.02,0.12-0.03,0.2c-0.01,0.07-0.02,0.14-0.03,0.21 c-0.01,0.07-0.01,0.14-0.02,0.21s-0.01,0.13-0.01,0.19c0,0.04,0,0.08,0.01,0.11c0,0.03,0.01,0.06,0.01,0.09H108.93z M109.23,58.42 c-0.06-0.03-0.12-0.05-0.2-0.07c-0.08-0.02-0.16-0.03-0.27-0.03c-0.14,0-0.29,0.03-0.43,0.09c-0.14,0.06-0.27,0.14-0.39,0.26 c-0.11,0.11-0.21,0.26-0.28,0.43c-0.07,0.17-0.11,0.37-0.11,0.6c0,0.11,0.01,0.22,0.04,0.31c0.03,0.09,0.07,0.18,0.12,0.25 c0.05,0.07,0.11,0.12,0.18,0.17c0.07,0.04,0.15,0.06,0.23,0.06c0.11,0,0.21-0.02,0.31-0.06c0.09-0.04,0.18-0.1,0.26-0.17 c0.08-0.07,0.14-0.16,0.19-0.25c0.05-0.1,0.09-0.2,0.11-0.3L109.23,58.42z"></path> <path class="st42" d="M112.47,56.91l-0.48,2.63c-0.01,0.05-0.02,0.09-0.02,0.13s-0.01,0.08-0.01,0.12c0,0.22,0.07,0.39,0.22,0.5 c0.14,0.11,0.38,0.17,0.69,0.17c0.2,0,0.38-0.02,0.53-0.06c0.15-0.04,0.27-0.1,0.37-0.18c0.1-0.08,0.18-0.18,0.24-0.29 c0.06-0.12,0.1-0.25,0.13-0.41l0.48-2.62h0.43l-0.47,2.59c-0.04,0.22-0.1,0.41-0.19,0.57c-0.09,0.17-0.2,0.3-0.34,0.42 c-0.14,0.11-0.32,0.2-0.53,0.25c-0.21,0.06-0.45,0.09-0.73,0.09c-0.44,0-0.76-0.08-0.96-0.23c-0.2-0.15-0.3-0.39-0.3-0.71 c0-0.11,0.01-0.24,0.04-0.38l0.47-2.6H112.47z"></path> <path class="st42" d="M115.12,60.78l0.7-3.87h0.44l-0.7,3.87H115.12z"></path> <path class="st42" d="M116.57,59.97c0.08,0.09,0.16,0.17,0.24,0.23c0.08,0.06,0.15,0.12,0.23,0.16c0.08,0.04,0.16,0.07,0.25,0.09 c0.09,0.02,0.18,0.03,0.29,0.03c0.13,0,0.26-0.02,0.38-0.05c0.12-0.03,0.23-0.08,0.32-0.14c0.09-0.06,0.17-0.14,0.22-0.22 c0.06-0.09,0.08-0.19,0.08-0.31c0-0.09-0.03-0.18-0.08-0.25c-0.05-0.07-0.12-0.14-0.21-0.21s-0.19-0.13-0.3-0.19 c-0.11-0.06-0.23-0.12-0.35-0.19c-0.16-0.09-0.3-0.17-0.41-0.25c-0.11-0.08-0.21-0.16-0.28-0.24c-0.07-0.08-0.13-0.17-0.16-0.26 c-0.03-0.09-0.05-0.2-0.05-0.32c0-0.18,0.04-0.33,0.13-0.47c0.09-0.13,0.2-0.24,0.34-0.33c0.14-0.09,0.29-0.15,0.47-0.19 c0.17-0.04,0.35-0.06,0.52-0.06c0.12,0,0.24,0.01,0.34,0.03c0.11,0.02,0.21,0.04,0.3,0.08s0.18,0.09,0.26,0.15 c0.08,0.06,0.16,0.14,0.23,0.22l-0.3,0.29c-0.11-0.15-0.24-0.27-0.39-0.34c-0.14-0.07-0.3-0.11-0.48-0.11 c-0.07,0-0.14,0-0.21,0.01c-0.07,0.01-0.14,0.02-0.22,0.04c-0.07,0.02-0.14,0.05-0.2,0.08c-0.06,0.03-0.12,0.07-0.16,0.12 c-0.05,0.05-0.08,0.1-0.11,0.16s-0.04,0.13-0.04,0.2c0,0.11,0.02,0.21,0.06,0.29c0.04,0.08,0.1,0.15,0.17,0.22 c0.07,0.06,0.16,0.12,0.26,0.18c0.1,0.05,0.2,0.11,0.32,0.17c0.06,0.03,0.12,0.06,0.2,0.1c0.07,0.04,0.15,0.08,0.23,0.12 c0.08,0.05,0.15,0.1,0.23,0.16c0.07,0.06,0.14,0.12,0.2,0.2c0.06,0.07,0.1,0.16,0.14,0.25c0.04,0.09,0.05,0.19,0.05,0.3 c0,0.19-0.04,0.35-0.13,0.49c-0.09,0.14-0.2,0.25-0.35,0.34c-0.14,0.09-0.31,0.16-0.49,0.2s-0.37,0.07-0.56,0.07 c-0.15,0-0.29-0.01-0.41-0.03c-0.12-0.02-0.24-0.06-0.34-0.1c-0.11-0.04-0.2-0.1-0.29-0.17c-0.09-0.07-0.18-0.15-0.27-0.24 L116.57,59.97z"></path> </g> <g> <path class="st28" d="M40.04,38.23c-0.08-0.01-0.16,0.05-0.15,0.13c0.07,3.56,2.1,6.45,6.03,7.2c3,0.57,5.43,0.34,8.34-0.46 c0.18-0.05,0.53-0.15,0.89-0.25c0.47-0.13,0.91,0.26,0.85,0.74c-0.08,0.64-0.17,1.28-0.25,1.9c-0.06,0.41-0.2,1.23-0.29,1.71 c-0.04,0.24-0.21,0.44-0.44,0.52c-4.32,1.52-8.88,2.04-13.33,0.69c-4.8-1.46-7.74-5.11-8.15-10.15 c-0.49-5.96,1.43-11.02,6.02-14.9c3.66-3.1,7.94-4.28,12.67-3.19c3.07,0.71,5.08,2.66,5.66,5.83c0.7,3.84-0.82,7.74-4.83,9.73 c-2.58,1.28-5.34,1.6-8.15,1.32C43.27,38.88,41.67,38.51,40.04,38.23z M40.44,33.32c-0.02,0.07,0.01,0.15,0.08,0.17 c2.27,0.75,4.52,1.12,6.84,0.78c1.51-0.22,2.91-0.72,3.96-1.92c1.81-2.07,1.13-6.54-3.91-5.85c-0.66,0.09-1.3,0.29-1.9,0.57 C42.9,28.33,41.43,30.58,40.44,33.32z"></path> <path class="st28" d="M69.48,22.36c0.43,0,0.77,0.39,0.71,0.81c-0.13,0.93-0.26,1.84-0.38,2.74c-0.45,3.17-0.9,6.33-1.35,9.5 c-0.28,1.96-0.56,3.93-0.8,5.9c-0.08,0.65-0.11,1.33-0.01,1.98c0.24,1.65,1.4,2.52,3.3,2.59c1.96,0.07,3.76-0.53,5.55-1.24 c0.64-0.25,0.97-0.56,1.06-1.3c0.51-4.02,1.09-8.04,1.64-12.06c0.37-2.65,0.73-5.29,1.1-7.96c0.07-0.53,0.53-0.93,1.07-0.93 l4.06,0c0.65,0,1.16,0.58,1.07,1.23c-1.21,8.68-2.42,17.34-3.63,26.03c-0.07,0.53-0.53,0.93-1.07,0.93l-2.65,0 c-0.45,0-0.86-0.29-1.01-0.71l-0.19-0.55c-0.17-0.48-0.73-0.69-1.18-0.44c-0.21,0.12-0.4,0.22-0.48,0.27 c-2.97,1.92-5.53,2.4-9.03,1.91c-4.05-0.58-6.34-3.57-5.93-7.72c0.38-3.88,1.01-7.74,1.48-11.61c0.22-1.84,0.47-3.69,0.77-5.52 c0.19-1.15,0.15-1.26,0.34-2.42c0-0.03,0.02-0.11,0.03-0.22c0.09-0.68,0.67-1.19,1.36-1.19C66.67,22.36,68.8,22.36,69.48,22.36z"></path> <path class="st28" d="M21.51,22.58c0.27-1.56,0.52-3.56,0.86-5.04c0.81-3.55,3.93-6.09,7.57-6.27c1.74-0.09,3.46,0.04,5.17,0.44 c0.57,0.13,0.95,0.68,0.86,1.26l-0.45,2.95c-0.1,0.63-0.71,1.07-1.33,0.93c-0.38-0.08-0.75-0.16-1.13-0.2 c-0.58-0.07-1.19-0.09-1.78-0.01c-1.63,0.22-2.6,1.24-3,2.78c-0.22,0.85-0.36,2.2-0.52,3.14l5.25,0c0.68,0,1.2,0.6,1.11,1.28 c-0.12,0.87-0.24,1.72-0.36,2.56c0,0,0,0.01,0,0.01c-0.13,0.91-0.9,1.58-1.82,1.58c-1.42,0-3.45-0.01-4.6-0.01 c-0.09,0-0.18,0.01-0.33,0.02c-1.5,10.77-2.96,21.06-4.47,31.84c-0.08,0.55-0.55,0.97-1.11,0.97l-3.97,0 c-0.68,0-1.2-0.6-1.11-1.28c1.51-10.67,2.96-20.84,4.47-31.54l-2.88-0.01c-0.61-0.08-1.05-0.13-0.83-1.62 c0.11-0.75,0.29-2.04,0.41-2.9c0.07-0.5,0.5-0.88,1-0.88c0,0,0,0,0,0c1.16-0.01,1.49,0,2.48,0 C21.18,22.58,21.35,22.58,21.51,22.58z"></path> <path class="st28" d="M102.75,49.58l0.46-3.07c0.08-0.56,0.62-0.93,1.17-0.8c0.88,0.2,1.73,0.4,2.59,0.54 c2,0.32,4.02,0.55,6.02,0.05c0.68-0.17,1.36-0.49,1.92-0.9c1.38-1,1.51-2.81,0.3-4.01c-0.54-0.54-1.19-0.97-1.84-1.38 c-1.42-0.9-2.9-1.71-4.28-2.65c-1.66-1.13-2.89-2.64-3.23-4.68c-0.56-3.32,0.57-6.03,3.23-8.06c2.59-1.98,5.61-2.47,8.78-2.32 c1.86,0.09,3.25,0.25,5.08,0.88c0.02,0.01,0.06,0.02,0.09,0.04c0.38,0.18,0.6,0.58,0.55,0.99c-0.12,1.01-0.26,2.06-0.39,3.06 c-0.07,0.55-0.6,0.92-1.14,0.82c-1.11-0.22-2.2-0.45-3.3-0.61c-1.6-0.23-3.22-0.24-4.78,0.29c-1.46,0.49-2.22,1.46-2.08,2.8 c0.06,0.55,0.32,1.17,0.69,1.57c0.59,0.63,1.31,1.16,2.05,1.62c1.46,0.93,3,1.74,4.44,2.7c1.69,1.11,3.09,2.53,3.4,4.62 c0.51,3.42-0.63,6.24-3.43,8.31c-2,1.48-4.33,2.11-6.77,2.29c-3.15,0.23-5.36,0.19-8.43-0.86c-0.05-0.02-0.24-0.09-0.46-0.16 C102.95,50.48,102.68,50.04,102.75,49.58z"></path> <path class="st28" d="M99.87,46.66c-0.17,1.29-0.33,2.53-0.51,3.78c-0.02,0.14-0.15,0.29-0.29,0.32 c-1.83,0.43-3.68,0.69-5.53,0.18c-1.93-0.53-3.24-2.35-3.24-4.35c0-1.77,0.14-3.55,0.36-5.3c0.42-3.37,0.95-6.72,1.44-10.08 c0.42-2.86,0.74-5.07,1.16-7.94l0-0.02c0.08-0.5,0.51-0.86,1.01-0.86l4.07,0c0.62,0,1.09,0.55,1.01,1.16 c-0.1,0.73-0.21,1.45-0.31,2.17c-0.48,3.32-0.98,6.65-1.46,9.97c-0.35,2.42-0.7,4.85-1.02,7.27c-0.07,0.52-0.06,1.08,0.02,1.6 c0.12,0.79,0.81,1.38,1.61,1.43c0.28,0.02,0.32,0.01,0.6,0.02l0.53,0.01C99.65,46.02,99.91,46.32,99.87,46.66z"></path> </g> <g> <path class="st29" d="M166.02,5.03c-3.05-1.76-8.01-1.76-11.06,0l-17.19,10.06c-3.05,1.76-5.36,6.09-5.36,9.61v1.18v1.64 l3.99-5.92c0.76-1.13,2.03-1.8,3.39-1.8s2.63,0.67,3.39,1.8l2.27,3.37L155,10.8c0.49-0.72,1.16-1.33,1.98-1.55 c0.31-0.08,0.94-0.17,1.26-0.19c0.42-0.02,1.18,0.08,1.56,0.19c0.82,0.22,1.49,0.83,1.98,1.55l7.24,10.91 c0.43-0.48,0.96-0.85,1.56-1.01c0.31-0.08,0.94-0.17,1.26-0.19c0.42-0.02,1.18,0.08,1.56,0.19c0.82,0.22,1.49,0.83,1.98,1.55 l7.33,10.88c0.49-0.72,1.16-1.32,1.98-1.55c0.31-0.08,0.94-0.17,1.26-0.19c0.42-0.02,1.18,0.08,1.56,0.19 c0.5,0.14,0.95,0.42,1.33,0.78v-7.53v-0.14c0-0.01,0-0.03,0-0.04c-0.01-1.04-0.43-2.66-0.54-3.03c-0.88-2.67-2.75-5.26-4.94-6.53 L166.02,5.03z"></path> <path class="st30" d="M168.54,42.26c1,0.26,1.84,0.92,2.42,1.78l1.57,2.32c0.3,0.45,0.96,0.45,1.26,0l7.01-10.4 c0.18-0.26,0.17-0.6,0-0.86l-7.75-11.28c-0.24-0.36-0.62-0.56-1.05-0.56s-0.81,0.2-1.05,0.56l-16.24,24.09 c-0.46,0.68-1.42,0.83-2.07,0.29c-0.57-0.47-0.63-1.32-0.22-1.93l4.66-6.91c0.17-0.26,0.17-0.59,0-0.85l-2.57-3.82 c-0.25-0.37-0.65-0.63-1.09-0.63c-0.43,0-0.82,0.2-1.06,0.56l-12.89,19.12c-0.47,0.69-0.25,1.64,0.47,2.05l10.21,5.92 c0.8,0.47,1.83,0.23,2.35-0.54l11.62-17.24C165.06,42.51,166.81,41.81,168.54,42.26z"></path> <path class="st28" d="M186.3,34.16c-0.51-0.08-0.98,0.13-1.26,0.55L168.8,58.8c-0.46,0.68-1.41,0.83-2.06,0.3 c-0.58-0.47-0.64-1.34-0.22-1.95l4.65-6.9c0.18-0.26,0.18-0.61,0-0.87l-2.58-3.82c-0.21-0.31-0.52-0.55-0.89-0.6 c-0.51-0.08-0.98,0.13-1.26,0.55l-11.38,16.88c-0.57,0.84-0.29,1.98,0.6,2.47l0,0c0.05,0.03,0.1,0.05,0.15,0.08l0.1,0.06 c2.07,1.04,7.32,1.43,10.37-0.34l17.19-10.06c3.04-1.76,5.36-6.09,5.36-9.61v-0.14v-1.04v-6.12c0-0.31-0.09-0.62-0.27-0.88 l-1.38-2.05C186.98,34.45,186.66,34.21,186.3,34.16z"></path> <path class="st0" d="M154.43,31.37c1,0.26,1.84,0.92,2.42,1.78l1.57,2.32c0.3,0.45,0.96,0.45,1.26,0L167,24.61 c0.17-0.26,0.17-0.59,0-0.85l-7.57-11.38c-0.24-0.36-0.63-0.56-1.06-0.56c-0.44,0-0.85,0.26-1.09,0.63L141.1,36.47 c-0.46,0.68-1.42,0.83-2.07,0.29c-0.57-0.47-0.63-1.32-0.22-1.94l4.66-6.91c0.17-0.26,0.17-0.59,0-0.85l-2.57-3.82 c-0.25-0.37-0.65-0.63-1.09-0.63c-0.43,0-0.82,0.2-1.06,0.56l-5.93,8.81c-0.25,0.38-0.39,0.82-0.39,1.27v11.6v0.14 c0,0.01,0,0.03,0,0.04c0.01,1.04,0.09,2.15,0.49,3.23c0.11,0.26,0.85,1.71,1.76,3.08c0.71,1.07,2.28,1.08,2.99,0.01L150,33.04 C150.95,31.63,152.7,30.93,154.43,31.37z M150.13,32.64l-5.35,7.88L150.13,32.64z"></path> </g> </g> </svg> 